<mxfile host="app.diagrams.net" agent="Mozilla/5.0 (Windows NT 10.0; Win64; x64) AppleWebKit/537.36 (KHTML, like Gecko) Chrome/130.0.0.0 Safari/537.36 Edg/130.0.0.0" version="24.8.6" pages="2">
  <diagram name="第 1 页" id="ZvRVtKMHqjIb7jlLaT23">
    <mxGraphModel dx="7120" dy="2260" grid="1" gridSize="10" guides="1" tooltips="1" connect="1" arrows="1" fold="1" page="1" pageScale="1" pageWidth="827" pageHeight="1169" math="0" shadow="0">
      <root>
        <mxCell id="0" />
        <mxCell id="1" parent="0" />
        <mxCell id="Y6v7ilCjQGHOnKSHEXt1-1" value="&lt;p style=&quot;margin:0px;margin-top:4px;text-align:center;&quot;&gt;&lt;b&gt;MoePufferManager&lt;/b&gt;&lt;/p&gt;&lt;hr size=&quot;1&quot; style=&quot;border-style:solid;&quot;&gt;&lt;p style=&quot;margin:0px;margin-left:4px;&quot;&gt;+ PufferInstanceMap:TMap&amp;lt;int32, PufferInstance&amp;gt;&lt;/p&gt;&lt;p style=&quot;margin:0px;margin-left:4px;&quot;&gt;+&amp;nbsp;&lt;span style=&quot;background-color: initial;&quot;&gt;msdkConfig:MoeMSDKConfig&lt;/span&gt;&lt;/p&gt;&lt;p style=&quot;margin: 0px 0px 0px 4px; font-size: 13px;&quot;&gt;&lt;font style=&quot;font-size: 13px;&quot; face=&quot;Helvetica&quot;&gt;+&amp;nbsp;MoePufferCommonUtils&lt;/font&gt;&lt;/p&gt;&lt;p style=&quot;margin: 0px 0px 0px 4px; font-size: 13px;&quot;&gt;&lt;font style=&quot;font-size: 13px;&quot; face=&quot;mioTM3kfGvBqRCMZXeb5&quot;&gt;+&amp;nbsp;pufferInsMap&amp;nbsp; //&lt;span style=&quot;font-style: italic;&quot;&gt;puffer&lt;/span&gt;&lt;span style=&quot;font-style: italic;&quot;&gt;对象与id的对应&lt;/span&gt;&lt;/font&gt;&lt;/p&gt;&lt;p style=&quot;margin: 0px 0px 0px 4px; font-size: 13px;&quot;&gt;&lt;font style=&quot;font-size: 13px;&quot; face=&quot;Helvetica&quot;&gt;&lt;font style=&quot;font-size: 13px;&quot;&gt;&lt;span style=&quot;font-style: italic;&quot;&gt;+&lt;/span&gt;&lt;/font&gt;__pufferKeyIdMap&amp;nbsp; //puffer的key与id的对应&lt;/font&gt;&lt;/p&gt;&lt;p style=&quot;margin: 0px 0px 0px 4px; font-size: 13px;&quot;&gt;&lt;font style=&quot;font-size: 13px;&quot; face=&quot;mioTM3kfGvBqRCMZXeb5&quot;&gt;+&amp;nbsp;initWaitListQue&amp;nbsp; //&lt;span style=&quot;font-style: italic;&quot;&gt;puffer&lt;/span&gt;&lt;span style=&quot;font-style: italic;&quot;&gt;等待初始化列表&lt;/span&gt;&lt;/font&gt;&lt;/p&gt;&lt;p style=&quot;margin: 0px 0px 0px 4px; font-size: 13px;&quot;&gt;&lt;font style=&quot;font-size: 13px;&quot; face=&quot;mioTM3kfGvBqRCMZXeb5&quot;&gt;&lt;span style=&quot;font-style: italic;&quot;&gt;+&amp;nbsp;&lt;/span&gt;pufferFileMap&lt;/font&gt;&lt;/p&gt;&lt;p style=&quot;margin: 0px 0px 0px 4px; font-size: 13px;&quot;&gt;&lt;font style=&quot;font-size: 13px;&quot; face=&quot;mioTM3kfGvBqRCMZXeb5&quot;&gt;+&amp;nbsp;pufferChunkMap&lt;/font&gt;&lt;/p&gt;&lt;p style=&quot;margin: 0px 0px 0px 4px; font-size: 13px;&quot;&gt;&lt;font style=&quot;font-size: 13px;&quot; face=&quot;mioTM3kfGvBqRCMZXeb5&quot;&gt;+&amp;nbsp;openMaxLimit&lt;/font&gt;&lt;/p&gt;&lt;p style=&quot;margin: 0px 0px 0px 4px; font-size: 13px;&quot;&gt;&lt;font style=&quot;font-size: 13px;&quot; face=&quot;mioTM3kfGvBqRCMZXeb5&quot;&gt;+&amp;nbsp;commonConf&lt;/font&gt;&lt;/p&gt;&lt;p style=&quot;margin: 0px 0px 0px 4px; font-size: 13px;&quot;&gt;&lt;font style=&quot;font-size: 13px;&quot; face=&quot;mioTM3kfGvBqRCMZXeb5&quot;&gt;+&amp;nbsp;__PufferBasePath&lt;/font&gt;&lt;/p&gt;&lt;p style=&quot;margin: 0px 0px 0px 4px; font-size: 13px;&quot;&gt;&lt;font style=&quot;font-size: 13px;&quot; face=&quot;mioTM3kfGvBqRCMZXeb5&quot;&gt;+&amp;nbsp;msdkConfig&amp;nbsp; //&lt;/font&gt;&lt;b style=&quot;background-color: initial; font-size: 12px; text-align: center;&quot;&gt;MoeMSDKConfig&lt;/b&gt;&lt;/p&gt;&lt;hr size=&quot;1&quot; style=&quot;border-style:solid;&quot;&gt;&lt;p style=&quot;margin:0px;margin-left:4px;&quot;&gt;+ CreatePufferInstance():int32&lt;/p&gt;&lt;p style=&quot;margin:0px;margin-left:4px;&quot;&gt;+ DestroyPufferInstance():int32&lt;/p&gt;&lt;p style=&quot;margin:0px;margin-left:4px;&quot;&gt;+ PausePufferInstance(int32 id):void&lt;/p&gt;&lt;p style=&quot;margin:0px;margin-left:4px;&quot;&gt;+ ResumePufferInstance(int32 id):void&lt;/p&gt;&lt;p style=&quot;margin:0px;margin-left:4px;&quot;&gt;+ ResetPufferInstance(int32 id):void&lt;/p&gt;&lt;p style=&quot;margin:0px;margin-left:4px;&quot;&gt;+ GetPufferInstance(int32 id): PufferInstance&lt;/p&gt;&lt;p style=&quot;margin: 0px 0px 0px 4px; font-size: 13px;&quot;&gt;&lt;font style=&quot;font-size: 13px;&quot; face=&quot;Helvetica&quot;&gt;+&amp;nbsp;GetPakFileMergeState(pakName)&amp;nbsp; //是否需要合并&lt;/font&gt;&lt;/p&gt;&lt;p style=&quot;margin: 0px 0px 0px 4px; font-size: 13px;&quot;&gt;&lt;font style=&quot;font-size: 13px;&quot; face=&quot;jgegVupZVu7GeprIliL_&quot;&gt;+&amp;nbsp;CreatePuffer(commonConf)&amp;nbsp; //根据&lt;b style=&quot;text-align: center;&quot;&gt;MoeMSDKConfig&lt;/b&gt;创建pufferinstance对象池&lt;/font&gt;&lt;/p&gt;&lt;p style=&quot;margin: 0px 0px 0px 4px; font-size: 13px;&quot;&gt;&lt;font style=&quot;font-size: 13px;&quot; face=&quot;jgegVupZVu7GeprIliL_&quot;&gt;+&amp;nbsp;OpenMaxSpeedLimit(bOpen)&amp;nbsp; //&lt;span style=&quot;font-style: italic;&quot;&gt;是否开启最大限速进行下载&lt;/span&gt;&lt;/font&gt;&lt;/p&gt;&lt;p style=&quot;margin: 0px 0px 0px 4px; font-size: 13px;&quot;&gt;&lt;font style=&quot;font-size: 13px;&quot; face=&quot;jgegVupZVu7GeprIliL_&quot;&gt;&lt;span style=&quot;font-style: italic;&quot;&gt;+&amp;nbsp;&lt;/span&gt;PausePuffer(pufferId, tag)&amp;nbsp; //暂停puffer&lt;/font&gt;&lt;/p&gt;&lt;p style=&quot;margin: 0px 0px 0px 4px; font-size: 13px;&quot;&gt;&lt;font style=&quot;font-size: 13px;&quot; face=&quot;jgegVupZVu7GeprIliL_&quot;&gt;+&amp;nbsp;ResumePuffer(pufferId, tag)&amp;nbsp; //恢复puffer&lt;/font&gt;&lt;/p&gt;&lt;p style=&quot;margin: 0px 0px 0px 4px; font-size: 13px;&quot;&gt;&lt;font style=&quot;font-size: 13px;&quot; face=&quot;jgegVupZVu7GeprIliL_&quot;&gt;+&amp;nbsp;ResetPuffer(pufferId)&amp;nbsp; //&lt;span style=&quot;font-style: italic;&quot;&gt;重新初始化&lt;/span&gt;&lt;span style=&quot;font-style: italic;&quot;&gt;puffer&lt;/span&gt;&lt;span style=&quot;font-style: italic;&quot;&gt;初始化失败重试调这个&lt;/span&gt;&lt;/font&gt;&lt;/p&gt;&lt;p style=&quot;margin: 0px 0px 0px 4px; font-size: 13px;&quot;&gt;&lt;font style=&quot;font-size: 13px;&quot; face=&quot;jgegVupZVu7GeprIliL_&quot;&gt;&lt;span style=&quot;font-style: italic;&quot;&gt;+&amp;nbsp;&lt;/span&gt;StartDownloadPak(params)&amp;nbsp; //&lt;span style=&quot;font-style: italic;&quot;&gt;下载指定&lt;/span&gt;&lt;span style=&quot;font-style: italic;&quot;&gt;pakName&lt;/span&gt;&lt;/font&gt;&lt;/p&gt;&lt;p style=&quot;margin: 0px 0px 0px 4px; font-size: 13px;&quot;&gt;&lt;font style=&quot;font-size: 13px;&quot; face=&quot;jgegVupZVu7GeprIliL_&quot;&gt;&lt;span style=&quot;font-style: italic;&quot;&gt;+&amp;nbsp;&lt;/span&gt;PauseDownloadPak(pakName, mutexTag)&amp;nbsp; //&lt;span style=&quot;font-style: italic;&quot;&gt;暂停&lt;/span&gt;&lt;span style=&quot;font-style: italic;&quot;&gt;pak&lt;/span&gt;&lt;span style=&quot;font-style: italic;&quot;&gt;下载&lt;/span&gt;&lt;/font&gt;&lt;/p&gt;&lt;p style=&quot;margin: 0px 0px 0px 4px; font-size: 13px;&quot;&gt;&lt;font style=&quot;font-size: 13px;&quot; face=&quot;jgegVupZVu7GeprIliL_&quot;&gt;&lt;span style=&quot;font-style: italic;&quot;&gt;+&amp;nbsp;&lt;/span&gt;GetPufferByChunkName(chunkName)&amp;nbsp; //&lt;span style=&quot;font-style: italic;&quot;&gt;通过&lt;/span&gt;&lt;span style=&quot;font-style: italic;&quot;&gt;chunkName&lt;/span&gt;&lt;span style=&quot;font-style: italic;&quot;&gt;获取&lt;/span&gt;&lt;span style=&quot;font-style: italic;&quot;&gt;puffer&lt;/span&gt;&lt;span style=&quot;font-style: italic;&quot;&gt;实例&lt;/span&gt;&lt;/font&gt;&lt;/p&gt;" style="verticalAlign=top;align=left;overflow=fill;html=1;whiteSpace=wrap;fillColor=#dae8fc;strokeColor=#6c8ebf;" parent="1" vertex="1">
          <mxGeometry x="-310" y="910" width="480" height="500" as="geometry" />
        </mxCell>
        <mxCell id="Y6v7ilCjQGHOnKSHEXt1-2" value="&lt;p style=&quot;margin:0px;margin-top:4px;text-align:center;&quot;&gt;&lt;b&gt;MoePakLoader&lt;/b&gt;&lt;/p&gt;&lt;p style=&quot;margin:0px;margin-top:4px;text-align:center;&quot;&gt;&lt;b&gt;（pak加载器，与pak属于一对一的关系，执行mount、下载、合并等操作,本质上是个装饰器）&lt;/b&gt;&lt;/p&gt;&lt;hr size=&quot;1&quot; style=&quot;border-style:solid;&quot;&gt;&lt;p style=&quot;margin:0px;margin-left:4px;&quot;&gt;+ pufferInstance:MoePufferInstance&lt;/p&gt;&lt;p style=&quot;margin:0px;margin-left:4px;&quot;&gt;+ MergeType: EMergeType // 马上，lazy&lt;/p&gt;&lt;p style=&quot;margin: 0px 0px 0px 4px; font-size: 13px;&quot;&gt;&lt;font style=&quot;font-size: 13px;&quot; face=&quot;Helvetica&quot;&gt;+&amp;nbsp;PakName&lt;/font&gt;&lt;/p&gt;&lt;p style=&quot;margin: 0px 0px 0px 4px; font-size: 13px;&quot;&gt;&lt;font style=&quot;font-size: 13px;&quot; face=&quot;HrNJluUpwnu2QOdzRBSb&quot;&gt;+&amp;nbsp;PufferInstance&amp;nbsp; //puffer加载器&lt;/font&gt;&lt;/p&gt;&lt;p style=&quot;margin: 0px 0px 0px 4px; font-size: 13px;&quot;&gt;&lt;font style=&quot;font-size: 13px;&quot; face=&quot;HrNJluUpwnu2QOdzRBSb&quot;&gt;+&amp;nbsp;RefCount&amp;nbsp; //引用计数&lt;/font&gt;&lt;/p&gt;&lt;p style=&quot;margin: 0px 0px 0px 4px; font-size: 13px;&quot;&gt;&lt;font style=&quot;font-size: 13px;&quot; face=&quot;HrNJluUpwnu2QOdzRBSb&quot;&gt;+&amp;nbsp;RefTag&amp;nbsp; //&lt;span style=&quot;font-style: italic;&quot;&gt;当前&lt;/span&gt;&lt;span style=&quot;font-style: italic;&quot;&gt;Pak&lt;/span&gt;&lt;span style=&quot;font-style: italic;&quot;&gt;关联的&lt;/span&gt;&lt;span style=&quot;font-style: italic;&quot;&gt;Tag&lt;/span&gt;&lt;span style=&quot;font-style: italic;&quot;&gt;，可以用于查询&lt;/span&gt;&lt;span style=&quot;font-style: italic;&quot;&gt;/&lt;/span&gt;&lt;span style=&quot;font-style: italic;&quot;&gt;卸载所有&lt;/span&gt;&lt;span style=&quot;font-style: italic;&quot;&gt;Tag&lt;/span&gt;&lt;span style=&quot;font-style: italic;&quot;&gt;的&lt;/span&gt;&lt;span style=&quot;font-style: italic;&quot;&gt;Pak&lt;/span&gt;&lt;/font&gt;&lt;/p&gt;&lt;p style=&quot;margin: 0px 0px 0px 4px; font-size: 13px;&quot;&gt;&lt;font style=&quot;font-size: 13px;&quot; face=&quot;HrNJluUpwnu2QOdzRBSb&quot;&gt;&lt;span style=&quot;font-style: italic;&quot;&gt;+&amp;nbsp;&lt;/span&gt;LoaderState&amp;nbsp; //&lt;span style=&quot;font-style: italic;&quot;&gt;当前&lt;/span&gt;&lt;span style=&quot;font-style: italic;&quot;&gt;Pak&lt;/span&gt;&lt;span style=&quot;font-style: italic;&quot;&gt;的加载状态&lt;/span&gt;&lt;/font&gt;&lt;/p&gt;&lt;p style=&quot;margin: 0px 0px 0px 4px; font-size: 13px;&quot;&gt;&lt;font style=&quot;font-size: 13px;&quot; face=&quot;HrNJluUpwnu2QOdzRBSb&quot;&gt;&lt;span style=&quot;font-style: italic;&quot;&gt;+&amp;nbsp;&lt;/span&gt;MergeType&amp;nbsp; //&lt;span style=&quot;font-style: italic;&quot;&gt;当前&lt;/span&gt;&lt;span style=&quot;font-style: italic;&quot;&gt;Pak&lt;/span&gt;&lt;span style=&quot;font-style: italic;&quot;&gt;的&lt;/span&gt;&lt;span style=&quot;font-style: italic;&quot;&gt;Merge&lt;/span&gt;&lt;span style=&quot;font-style: italic;&quot;&gt;类型 是立刻&lt;/span&gt;&lt;span style=&quot;font-style: italic;&quot;&gt;Merge&lt;/span&gt;&lt;/font&gt;&lt;/p&gt;&lt;p style=&quot;margin: 0px 0px 0px 4px; font-size: 13px;&quot;&gt;&lt;font style=&quot;font-size: 13px;&quot; face=&quot;HrNJluUpwnu2QOdzRBSb&quot;&gt;&lt;span style=&quot;font-style: italic;&quot;&gt;+&amp;nbsp;&lt;/span&gt;ChunkName&amp;nbsp; //包组名&lt;/font&gt;&lt;/p&gt;&lt;p style=&quot;margin: 0px 0px 0px 4px; font-size: 13px;&quot;&gt;&lt;font style=&quot;font-size: 13px;&quot; face=&quot;HrNJluUpwnu2QOdzRBSb&quot;&gt;+&amp;nbsp;IsStatic&amp;nbsp; //静态包&lt;/font&gt;&lt;/p&gt;&lt;p style=&quot;margin: 0px 0px 0px 4px; font-size: 13px;&quot;&gt;&lt;font style=&quot;font-size: 13px;&quot; face=&quot;HrNJluUpwnu2QOdzRBSb&quot;&gt;+&amp;nbsp;IsInContentBase&amp;nbsp; //是否在底包&lt;/font&gt;&lt;/p&gt;&lt;p style=&quot;margin: 0px 0px 0px 4px; font-size: 13px;&quot;&gt;&lt;font style=&quot;font-size: 13px;&quot; face=&quot;HrNJluUpwnu2QOdzRBSb&quot;&gt;+&amp;nbsp;LocalPath&amp;nbsp; //本地加载地址&lt;/font&gt;&lt;/p&gt;&lt;p style=&quot;margin: 0px 0px 0px 4px; font-size: 13px;&quot;&gt;&lt;font style=&quot;font-size: 13px;&quot; face=&quot;HrNJluUpwnu2QOdzRBSb&quot;&gt;+&amp;nbsp;PakMergeTask&lt;/font&gt;&lt;/p&gt;&lt;p style=&quot;margin: 0px 0px 0px 4px; font-size: 13px;&quot;&gt;&lt;font style=&quot;font-size: 13px;&quot; face=&quot;HrNJluUpwnu2QOdzRBSb&quot;&gt;+&amp;nbsp;DownloadOrder&lt;/font&gt;&lt;/p&gt;&lt;hr size=&quot;1&quot; style=&quot;border-style:solid;&quot;&gt;&lt;p style=&quot;margin:0px;margin-left:4px;&quot;&gt;+ LoadPakFromRemote():bool&lt;/p&gt;&lt;p style=&quot;margin:0px;margin-left:4px;&quot;&gt;+ LoadPakFromLocal():bool&lt;/p&gt;&lt;p style=&quot;margin:0px;margin-left:4px;&quot;&gt;+ StartDownLoadTask():bool&lt;/p&gt;&lt;p style=&quot;margin:0px;margin-left:4px;&quot;&gt;+ StopDownloadTask():void&lt;/p&gt;&lt;p style=&quot;margin:0px;margin-left:4px;&quot;&gt;+ OnDownloadFinish():void&lt;/p&gt;&lt;p style=&quot;margin:0px;margin-left:4px;&quot;&gt;+ MountPak(): bool&lt;/p&gt;&lt;p style=&quot;margin:0px;margin-left:4px;&quot;&gt;+ UnMountPak():bool&lt;/p&gt;&lt;p style=&quot;margin:0px;margin-left:4px;&quot;&gt;+ IsPakMounted():bool&lt;/p&gt;&lt;p style=&quot;margin:0px;margin-left:4px;&quot;&gt;+ IsPAKFileReady(): bool //pak已经下载，还没调用ue的mount&lt;/p&gt;&lt;p style=&quot;margin:0px;margin-left:4px;&quot;&gt;+ SetPakLoadSchedule():void //设置pak加载的方案（优先从远端下载/强制从远端下载,无论本地是否拥有，远端没有，再从本地加载，本地加载的搜索路径是（文件夹路径））&lt;/p&gt;&lt;p style=&quot;margin:0px;margin-left:4px;&quot;&gt;+ DeletePakFile():void&lt;/p&gt;&lt;p style=&quot;margin:0px;margin-left:4px;&quot;&gt;+ IsPakCanDelete():bool&lt;/p&gt;&lt;p style=&quot;margin:0px;margin-left:4px;&quot;&gt;+ GetPakFileSize():float&lt;/p&gt;&lt;p style=&quot;margin:0px;margin-left:4px;&quot;&gt;+ IsStaticPak():bool&lt;/p&gt;&lt;p style=&quot;margin:0px;margin-left:4px;&quot;&gt;&lt;br&gt;&lt;/p&gt;" style="verticalAlign=top;align=left;overflow=fill;html=1;whiteSpace=wrap;" parent="1" vertex="1">
          <mxGeometry x="-770" y="320" width="530" height="530" as="geometry" />
        </mxCell>
        <mxCell id="Y6v7ilCjQGHOnKSHEXt1-3" value="&lt;p style=&quot;margin:0px;margin-top:4px;text-align:center;&quot;&gt;&lt;b&gt;MoeMSDKConfig&lt;/b&gt;&lt;/p&gt;&lt;p style=&quot;margin:0px;margin-top:4px;text-align:center;&quot;&gt;&lt;b&gt;（设置下载配置puffer与dolphin）&lt;/b&gt;&lt;/p&gt;&lt;hr size=&quot;1&quot; style=&quot;border-style:solid;&quot;&gt;&lt;p style=&quot;margin: 0px 0px 0px 4px; font-size: 13px;&quot;&gt;&lt;font style=&quot;font-size: 13px;&quot; face=&quot;Helvetica&quot;&gt;+&amp;nbsp;Struct_PufferVO: puffer信息的结构体&lt;/font&gt;&lt;/p&gt;&lt;p style=&quot;margin: 0px 0px 0px 4px; font-size: 13px;&quot;&gt;&lt;font style=&quot;font-size: 13px;&quot; face=&quot;gywqxVKAuNaPn6M9sK-j&quot;&gt;+&amp;nbsp;PufferVOMap: 已配置的puffer信息&lt;/font&gt;&lt;/p&gt;&lt;p style=&quot;margin: 0px 0px 0px 4px; font-size: 13px;&quot;&gt;&lt;font style=&quot;font-size: 13px;&quot; face=&quot;gywqxVKAuNaPn6M9sK-j&quot;&gt;+&amp;nbsp;DolphinVO： dolphin信息&lt;/font&gt;&lt;/p&gt;&lt;div&gt;&lt;span style=&quot;font-family: &amp;quot;JetBrains Mono&amp;quot;, monospace; font-size: 13.5pt; background-color: rgb(38, 38, 38); color: rgb(208, 208, 208);&quot;&gt;&lt;br&gt;&lt;/span&gt;&lt;/div&gt;&lt;hr size=&quot;1&quot; style=&quot;border-style:solid;&quot;&gt;&lt;p style=&quot;margin:0px;margin-left:4px;&quot;&gt;+ RegistPufferVO(PufferVO VO):bool&amp;nbsp;&lt;span style=&quot;background-color: initial;&quot;&gt;修改puffer信息&lt;/span&gt;&lt;/p&gt;&lt;p style=&quot;margin:0px;margin-left:4px;&quot;&gt;+ RegistDolphinVO(DolphinVO VO) : bool&lt;/p&gt;&lt;p style=&quot;margin:0px;margin-left:4px;&quot;&gt;+ GetCurrDolphinVO():DolphinVO&lt;/p&gt;&lt;p style=&quot;margin:0px;margin-left:4px;&quot;&gt;+ GetPufferVO(int32 id):PufferVO&lt;/p&gt;" style="verticalAlign=top;align=left;overflow=fill;html=1;whiteSpace=wrap;fillColor=#dae8fc;strokeColor=#6c8ebf;" parent="1" vertex="1">
          <mxGeometry x="-330" y="1760" width="530" height="210" as="geometry" />
        </mxCell>
        <mxCell id="Y6v7ilCjQGHOnKSHEXt1-4" value="&lt;p style=&quot;margin:0px;margin-top:4px;text-align:center;text-decoration:underline;&quot;&gt;&lt;b&gt;MoeDophinVO:struct&lt;/b&gt;&lt;/p&gt;&lt;hr size=&quot;1&quot; style=&quot;border-style:solid;&quot;&gt;&lt;p style=&quot;margin:0px;margin-left:8px;&quot;&gt;field1 = value1&lt;br&gt;field2 = value2&lt;br&gt;field3 = value3&lt;/p&gt;" style="verticalAlign=top;align=left;overflow=fill;html=1;whiteSpace=wrap;fillColor=#dae8fc;strokeColor=#6c8ebf;" parent="1" vertex="1">
          <mxGeometry x="-320" y="2020" width="160" height="90" as="geometry" />
        </mxCell>
        <mxCell id="Y6v7ilCjQGHOnKSHEXt1-5" value="&lt;p style=&quot;margin:0px;margin-top:4px;text-align:center;text-decoration:underline;&quot;&gt;&lt;b&gt;MoePufferVO:struct&lt;/b&gt;&lt;/p&gt;&lt;hr size=&quot;1&quot; style=&quot;border-style:solid;&quot;&gt;&lt;p style=&quot;margin:0px;margin-left:8px;&quot;&gt;field1 = value1&lt;br&gt;field2 = value2&lt;br&gt;field3 = value3&lt;/p&gt;" style="verticalAlign=top;align=left;overflow=fill;html=1;whiteSpace=wrap;fillColor=#dae8fc;strokeColor=#6c8ebf;" parent="1" vertex="1">
          <mxGeometry x="-40" y="2020" width="160" height="90" as="geometry" />
        </mxCell>
        <mxCell id="Y6v7ilCjQGHOnKSHEXt1-6" value="&lt;p style=&quot;margin:0px;margin-top:4px;text-align:center;&quot;&gt;&lt;b&gt;MoePufferInstance&lt;/b&gt;&lt;/p&gt;&lt;p style=&quot;margin:0px;margin-top:4px;text-align:center;&quot;&gt;&lt;b&gt;（与puffer服务器一对一，几乎一个玩法一个puffer，一次性下载几个由FMoePufferInstance决定）&lt;/b&gt;&lt;/p&gt;&lt;hr size=&quot;1&quot; style=&quot;border-style:solid;&quot;&gt;&lt;p style=&quot;margin:0px;margin-left:4px;&quot;&gt;+ DownLoadTasks:TMap&amp;lt;int32,MoePufferDownloadTask&amp;gt; 每个pak都是一个下载任务&lt;/p&gt;&lt;p style=&quot;margin:0px;margin-left:4px;&quot;&gt;+ Priority: int32&lt;/p&gt;&lt;p style=&quot;margin:0px;margin-left:4px;&quot;&gt;+ CurrState: EPufferInstanceState&lt;/p&gt;&lt;p style=&quot;margin:0px;margin-left:4px;&quot;&gt;+ RemotePakVersVO: MoePakVersionVO&lt;/p&gt;&lt;p style=&quot;margin:0px;margin-left:4px;&quot;&gt;+ CurrentPakVersVO: MoePakVersionVO&lt;/p&gt;&lt;p style=&quot;margin:0px;margin-left:4px;&quot;&gt;+ pufferType:EPufferType // 0 ：默认puffer， 1：feature puffer&lt;/p&gt;&lt;p style=&quot;margin:0px;margin-left:4px;&quot;&gt;+ id:int32&lt;/p&gt;&lt;p style=&quot;margin:0px;margin-left:4px;&quot;&gt;+&amp;nbsp;&lt;font style=&quot;font-size: 13px;&quot;&gt;fPuffer&amp;nbsp; //UE中的pufferInstance，真正进行下载工作的对象&lt;/font&gt;&lt;/p&gt;&lt;hr size=&quot;1&quot; style=&quot;border-style:solid;&quot;&gt;&lt;p style=&quot;margin:0px;margin-left:4px;&quot;&gt;+ Init():void&lt;/p&gt;&lt;p style=&quot;margin:0px;margin-left:4px;&quot;&gt;+ Close():void&lt;/p&gt;&lt;p style=&quot;margin:0px;margin-left:4px;&quot;&gt;+ Puase():void&lt;/p&gt;&lt;p style=&quot;margin:0px;margin-left:4px;&quot;&gt;+ Resume():void&lt;/p&gt;&lt;p style=&quot;margin:0px;margin-left:4px;&quot;&gt;+ GetDownlaodTask(int32 TaskId):MoePufferDownloadTask&lt;/p&gt;&lt;p style=&quot;margin:0px;margin-left:4px;&quot;&gt;+ CreateDownloadTask():int32&lt;/p&gt;&lt;p style=&quot;margin:0px;margin-left:4px;&quot;&gt;+ DestroyDownloadTask(int32 id):bool&lt;/p&gt;&lt;p style=&quot;margin: 0px 0px 0px 4px; font-size: 13px;&quot;&gt;&lt;font style=&quot;font-size: 13px;&quot;&gt;+&amp;nbsp;OnUpdatePakDownloadList()&lt;/font&gt;&lt;/p&gt;&lt;p style=&quot;margin: 0px 0px 0px 4px; font-size: 13px;&quot;&gt;&lt;font style=&quot;font-size: 13px;&quot;&gt;+&amp;nbsp;StartDownloadTask(params)&amp;nbsp; //下载&lt;/font&gt;&lt;/p&gt;&lt;p style=&quot;margin: 0px 0px 0px 4px; font-size: 13px;&quot;&gt;&lt;font style=&quot;font-size: 13px;&quot;&gt;+&amp;nbsp;CheckDiffFileHasFailed(diffFileName)&amp;nbsp; //&lt;span style=&quot;font-style: italic;&quot;&gt;判断是否二进制差异更新失败&lt;/span&gt;&lt;/font&gt;&lt;/p&gt;" style="verticalAlign=top;align=left;overflow=fill;html=1;whiteSpace=wrap;fillColor=#dae8fc;strokeColor=#6c8ebf;" parent="1" vertex="1">
          <mxGeometry x="230" y="720" width="490" height="350" as="geometry" />
        </mxCell>
        <mxCell id="Y6v7ilCjQGHOnKSHEXt1-7" value="&lt;p style=&quot;margin:0px;margin-top:4px;text-align:center;&quot;&gt;&lt;b&gt;MoePufferDownloadTask&lt;/b&gt;&lt;/p&gt;&lt;p style=&quot;margin:0px;margin-top:4px;text-align:center;&quot;&gt;&lt;b&gt;（与pak一对一，只是一个下载任务，不进行下载操作）&lt;/b&gt;&lt;/p&gt;&lt;hr size=&quot;1&quot; style=&quot;border-style:solid;&quot;&gt;&lt;p style=&quot;margin:0px;margin-left:4px;&quot;&gt;+ Priority:int32&lt;/p&gt;&lt;p style=&quot;margin:0px;margin-left:4px;&quot;&gt;+ CurrState:EPufferDownloadTaskState&lt;/p&gt;&lt;p style=&quot;margin:0px;margin-left:4px;&quot;&gt;- OnDownloadFinish:Action&amp;lt;bool&amp;gt;&lt;/p&gt;&lt;p style=&quot;margin: 0px 0px 0px 4px; font-size: 13px;&quot;&gt;&lt;font style=&quot;font-size: 13px;&quot; face=&quot;Helvetica&quot;&gt;+&amp;nbsp;taskId:int32&lt;/font&gt;&lt;/p&gt;&lt;p style=&quot;margin: 0px 0px 0px 4px; font-size: 13px;&quot;&gt;&lt;font style=&quot;font-size: 13px;&quot; face=&quot;Fp_C_VXdC96tK1e_ZezK&quot;&gt;+&amp;nbsp;taskState:&lt;b style=&quot;text-align: center;&quot;&gt;EPufferDownloadTaskState&lt;/b&gt;&lt;/font&gt;&lt;/p&gt;&lt;p style=&quot;margin: 0px 0px 0px 4px; font-size: 13px;&quot;&gt;&lt;font style=&quot;font-size: 13px;&quot; face=&quot;Fp_C_VXdC96tK1e_ZezK&quot;&gt;&lt;b style=&quot;text-align: center;&quot;&gt;+&amp;nbsp;&lt;/b&gt;pakFile&lt;/font&gt;&lt;/p&gt;&lt;p style=&quot;margin: 0px 0px 0px 4px; font-size: 13px;&quot;&gt;&lt;font style=&quot;font-size: 13px;&quot; face=&quot;Fp_C_VXdC96tK1e_ZezK&quot;&gt;+&amp;nbsp;priority&lt;/font&gt;&lt;/p&gt;&lt;hr size=&quot;1&quot; style=&quot;border-style:solid;&quot;&gt;&lt;p style=&quot;margin:0px;margin-left:4px;&quot;&gt;+ StartDownload(Action&amp;lt;bool&amp;gt; OnDownloadFinish):bool&lt;/p&gt;&lt;p style=&quot;margin:0px;margin-left:4px;&quot;&gt;+ StopDownload():bool&lt;/p&gt;&lt;p style=&quot;margin:0px;margin-left:4px;&quot;&gt;+ PauseDownload():bool&lt;/p&gt;&lt;p style=&quot;margin:0px;margin-left:4px;&quot;&gt;+ ResumeDownload():bool&lt;/p&gt;&lt;p style=&quot;margin:0px;margin-left:4px;&quot;&gt;+ FinishDownload():bool&lt;/p&gt;" style="verticalAlign=top;align=left;overflow=fill;html=1;whiteSpace=wrap;fillColor=#dae8fc;strokeColor=#6c8ebf;" parent="1" vertex="1">
          <mxGeometry x="750" y="1010" width="402.5" height="270" as="geometry" />
        </mxCell>
        <mxCell id="Y6v7ilCjQGHOnKSHEXt1-8" value="&lt;p style=&quot;margin:0px;margin-top:4px;text-align:center;&quot;&gt;&lt;b&gt;MoePakManager&lt;/b&gt;&lt;/p&gt;&lt;p style=&quot;margin:0px;margin-top:4px;text-align:center;&quot;&gt;&lt;b&gt;（pak单包管理器，全局单例，主要是下载和mount两部分）&lt;/b&gt;&lt;/p&gt;&lt;hr size=&quot;1&quot; style=&quot;border-style:solid;&quot;&gt;&lt;p style=&quot;margin:0px;margin-left:4px;&quot;&gt;+ PakLoaderMap:TMap&amp;lt;FString,MoePakLoader&amp;gt;&amp;nbsp; //每个pak的加载器列表&lt;/p&gt;&lt;p style=&quot;margin:0px;margin-left:4px;&quot;&gt;+ PufferManager:MoePufferManager&lt;/p&gt;&lt;p style=&quot;margin:0px;margin-left:4px;&quot;&gt;+ msdkConfig:MoeMSDKConfig&lt;/p&gt;&lt;p style=&quot;margin: 0px 0px 0px 4px; font-size: 13px;&quot;&gt;&lt;span style=&quot;background-color: rgb(255, 255, 255);&quot;&gt;+&amp;nbsp;PufferManager&amp;nbsp; //puffer对象管理器&lt;/span&gt;&lt;/p&gt;&lt;hr size=&quot;1&quot; style=&quot;border-style:solid;&quot;&gt;&lt;p style=&quot;margin:0px;margin-left:4px;&quot;&gt;+ GetPakLoader(FString PakName):MoePakLoader&lt;/p&gt;&lt;p style=&quot;margin:0px;margin-left:4px;&quot;&gt;+ GetPakLoaders(TArray&amp;lt;FString&amp;gt; PakNames) :TArray&amp;lt;MoePakLoader&amp;gt;&lt;/p&gt;&lt;p style=&quot;margin:0px;margin-left:4px;&quot;&gt;+ PreparePakFiles(mergetype,TArray&amp;lt;FString&amp;gt; PakName):void&lt;/p&gt;&lt;p style=&quot;margin:0px;margin-left:4px;&quot;&gt;（&lt;span style=&quot;background-color: initial;&quot;&gt;Download + Merge&lt;/span&gt;&lt;span style=&quot;background-color: initial;&quot;&gt;）&lt;/span&gt;&lt;/p&gt;&lt;p style=&quot;margin: 0px 0px 0px 4px; font-size: 13px;&quot;&gt;&lt;font style=&quot;font-size: 13px;&quot; face=&quot;Helvetica&quot;&gt;+&amp;nbsp;GetPakLoaderList(inChunkName)&amp;nbsp; //&lt;/font&gt;&lt;/p&gt;&lt;p style=&quot;margin: 0px 0px 0px 4px; font-size: 13px;&quot;&gt;&lt;font style=&quot;font-size: 13px;&quot; face=&quot;FFCzMMd8Jv6xjD_hLUZD&quot;&gt;+&amp;nbsp;ChangeDownloadLevel(inPakName, inTaskLevel)&amp;nbsp; //修改下载优先级&lt;/font&gt;&lt;/p&gt;&lt;p style=&quot;margin: 0px 0px 0px 4px; font-size: 13px;&quot;&gt;&lt;font style=&quot;font-size: 13px;&quot; face=&quot;FFCzMMd8Jv6xjD_hLUZD&quot;&gt;+&amp;nbsp;DeleteFile(inPakName, bCanReDownload)&lt;/font&gt;&lt;/p&gt;&lt;p style=&quot;margin: 0px 0px 0px 4px; font-size: 13px;&quot;&gt;&lt;font style=&quot;font-size: 13px;&quot; face=&quot;FFCzMMd8Jv6xjD_hLUZD&quot;&gt;+&amp;nbsp;MountPak(inPakName)&lt;/font&gt;&lt;/p&gt;&lt;p style=&quot;margin: 0px 0px 0px 4px; font-size: 13px;&quot;&gt;&lt;font style=&quot;font-size: 13px;&quot; face=&quot;FFCzMMd8Jv6xjD_hLUZD&quot;&gt;+&amp;nbsp;UnMountPak(inPakName)&lt;/font&gt;&lt;/p&gt;&lt;p style=&quot;margin:0px;margin-left:4px;&quot;&gt;mount 异步+同步&amp;nbsp; &amp;nbsp;1pakname 2 callback 3 isAutoPrepare&amp;nbsp; &amp;nbsp;当触发下载的时候，Push一个Event&lt;/p&gt;" style="verticalAlign=top;align=left;overflow=fill;html=1;whiteSpace=wrap;" parent="1" vertex="1">
          <mxGeometry x="-1380" y="470" width="520" height="300" as="geometry" />
        </mxCell>
        <mxCell id="Y6v7ilCjQGHOnKSHEXt1-9" value="GM指令，这里缓存了Mount的状态，以防有其他用户会自己调用ue的mount方法，从而导致mount和unmount 的缓存状态不太对，所以，这里需要加一个gm指令可以在某些时刻全局检查一下当前的mount和unmount是否跟ue里记录的状态正确；&lt;div&gt;&lt;br&gt;&lt;/div&gt;" style="shape=document;whiteSpace=wrap;html=1;boundedLbl=1;" parent="1" vertex="1">
          <mxGeometry x="-660" y="20" width="490" height="170" as="geometry" />
        </mxCell>
        <mxCell id="Y6v7ilCjQGHOnKSHEXt1-10" value="&lt;p style=&quot;margin:0px;margin-top:4px;text-align:center;&quot;&gt;&lt;b&gt;MoeChunkGroupManager&lt;/b&gt;&lt;/p&gt;&lt;p style=&quot;margin:0px;margin-top:4px;text-align:center;&quot;&gt;&lt;b&gt;（pak包组管理器，全局单例，同时也是各个shedule对外的一个装饰器）&lt;/b&gt;&lt;/p&gt;&lt;hr size=&quot;1&quot; style=&quot;border-style:solid;&quot;&gt;&lt;p style=&quot;margin:0px;margin-left:4px;&quot;&gt;+ PakManager：MoePakManager //pak加载管理器&lt;/p&gt;&lt;p style=&quot;margin:0px;margin-left:4px;&quot;&gt;+&amp;nbsp;matchInfoNonessentialpakGroupCheckCache&amp;nbsp; //？&lt;/p&gt;&lt;p style=&quot;margin: 0px 0px 0px 4px; font-size: 13px;&quot;&gt;&lt;font style=&quot;font-size: 13px;&quot; face=&quot;Helvetica&quot;&gt;+&amp;nbsp;CurChunkGroupConfigMap&amp;nbsp; //&lt;/font&gt;&lt;/p&gt;&lt;p style=&quot;margin: 0px 0px 0px 4px; font-size: 13px;&quot;&gt;&lt;font style=&quot;font-size: 13px;&quot; face=&quot;aDepDraCx0kL4tXVB6CO&quot;&gt;+&amp;nbsp;MoeChunkGroupDownloadSchedule&lt;/font&gt;&lt;/p&gt;&lt;p style=&quot;margin: 0px 0px 0px 4px; font-size: 13px;&quot;&gt;&lt;font style=&quot;font-size: 13px;&quot; face=&quot;aDepDraCx0kL4tXVB6CO&quot;&gt;+&amp;nbsp;MoeChunkGroupMountSchedule&lt;/font&gt;&lt;/p&gt;&lt;p style=&quot;margin: 0px 0px 0px 4px; font-size: 13px;&quot;&gt;&lt;font style=&quot;font-size: 13px;&quot; face=&quot;aDepDraCx0kL4tXVB6CO&quot;&gt;+&amp;nbsp;MoeChunkGroupUISchedule&lt;/font&gt;&lt;/p&gt;&lt;p style=&quot;margin: 0px 0px 0px 4px; font-size: 13px;&quot;&gt;&lt;font style=&quot;font-size: 13px;&quot; face=&quot;aDepDraCx0kL4tXVB6CO&quot;&gt;+&amp;nbsp;MoeChunkGroupShaderSchedule&lt;/font&gt;&lt;/p&gt;&lt;p style=&quot;margin: 0px 0px 0px 4px; font-size: 13px;&quot;&gt;&lt;font style=&quot;font-size: 13px;&quot; face=&quot;aDepDraCx0kL4tXVB6CO&quot;&gt;+&amp;nbsp;MoeChunkGroupSceneSchedule&lt;/font&gt;&lt;/p&gt;&lt;p style=&quot;margin: 0px 0px 0px 4px; font-size: 13px;&quot;&gt;&lt;font style=&quot;font-size: 13px;&quot; face=&quot;aDepDraCx0kL4tXVB6CO&quot;&gt;+&amp;nbsp;MoeChunkGroupDeleteSchedule&lt;/font&gt;&lt;/p&gt;&lt;hr size=&quot;1&quot; style=&quot;border-style:solid;&quot;&gt;&lt;p style=&quot;margin:0px;margin-left:4px;&quot;&gt;&lt;font face=&quot;Mebcg4QQO1nsYdmMe52B&quot;&gt;&lt;span style=&quot;font-size: 13px;&quot;&gt;包组信息相关：&lt;/span&gt;&lt;/font&gt;&lt;/p&gt;&lt;p style=&quot;margin:0px;margin-left:4px;&quot;&gt;&lt;span style=&quot;font-size: 13px; font-family: Mebcg4QQO1nsYdmMe52B; background-color: initial;&quot;&gt;+ InitChunkGroupConfigMap（）&amp;nbsp; //初始化所有包组信息&lt;/span&gt;&lt;/p&gt;&lt;p style=&quot;margin:0px;margin-left:4px;&quot;&gt;&lt;span style=&quot;font-size: 13px; font-family: Mebcg4QQO1nsYdmMe52B; background-color: initial;&quot;&gt;+GetChunkGroupConfigMap（） //获取所有包组信息&lt;/span&gt;&lt;/p&gt;&lt;p style=&quot;margin: 0px 0px 0px 4px; font-size: 13px;&quot;&gt;&lt;font style=&quot;font-size: 13px;&quot; face=&quot;Mebcg4QQO1nsYdmMe52B&quot;&gt;+ GetChunkGroupConfigItem（inGroupId） //获取当前包组&lt;/font&gt;&lt;/p&gt;&lt;p style=&quot;margin: 0px 0px 0px 4px; font-size: 13px;&quot;&gt;&lt;font style=&quot;font-size: 13px;&quot; face=&quot;Mebcg4QQO1nsYdmMe52B&quot;&gt;+ IsInAppByPlatforms（downloadPlatforms） //当前包组是否需要下载，&lt;font color=&quot;#ff0000&quot;&gt;暂时存疑&lt;/font&gt;&lt;/font&gt;&lt;/p&gt;&lt;p style=&quot;margin: 0px 0px 0px 4px; font-size: 13px;&quot;&gt;&lt;font style=&quot;font-size: 13px;&quot; face=&quot;Mebcg4QQO1nsYdmMe52B&quot;&gt;+ IsInApp（InPathPakName） //&lt;/font&gt;&lt;span style=&quot;color: rgb(255, 0, 0); font-family: Mebcg4QQO1nsYdmMe52B; background-color: initial;&quot;&gt;暂时存疑&lt;/span&gt;&lt;/p&gt;&lt;p style=&quot;margin: 0px 0px 0px 4px; font-size: 13px;&quot;&gt;&lt;font style=&quot;font-size: 13px;&quot; face=&quot;Mebcg4QQO1nsYdmMe52B&quot;&gt;&lt;br&gt;&lt;/font&gt;&lt;/p&gt;&lt;p style=&quot;margin: 0px 0px 0px 4px; font-size: 13px;&quot;&gt;&lt;font style=&quot;font-size: 13px;&quot; face=&quot;Mebcg4QQO1nsYdmMe52B&quot;&gt;&lt;br&gt;&lt;/font&gt;&lt;/p&gt;&lt;p style=&quot;margin: 0px 0px 0px 4px; font-size: 13px;&quot;&gt;&lt;font style=&quot;font-size: 13px;&quot; face=&quot;Mebcg4QQO1nsYdmMe52B&quot;&gt;puffer相关：&lt;/font&gt;&lt;/p&gt;&lt;p style=&quot;margin: 0px 0px 0px 4px;&quot;&gt;&lt;font style=&quot;&quot; face=&quot;Mebcg4QQO1nsYdmMe52B&quot;&gt;&lt;span style=&quot;font-size: 13px;&quot;&gt;+ CheckAllPufferIsReady（） //检查所有的puffer是否都准备好了&lt;/span&gt;&lt;/font&gt;&lt;/p&gt;&lt;p style=&quot;margin: 0px 0px 0px 4px;&quot;&gt;&lt;font style=&quot;&quot; face=&quot;Mebcg4QQO1nsYdmMe52B&quot;&gt;&lt;span style=&quot;font-size: 13px;&quot;&gt;&lt;br&gt;&lt;/span&gt;&lt;/font&gt;&lt;/p&gt;&lt;p style=&quot;margin: 0px 0px 0px 4px;&quot;&gt;&lt;font style=&quot;&quot; face=&quot;Mebcg4QQO1nsYdmMe52B&quot;&gt;&lt;span style=&quot;font-size: 13px;&quot;&gt;shedule相关：&lt;/span&gt;&lt;/font&gt;&lt;/p&gt;&lt;p style=&quot;margin: 0px 0px 0px 4px;&quot;&gt;&lt;font style=&quot;&quot; face=&quot;Mebcg4QQO1nsYdmMe52B&quot;&gt;&lt;span style=&quot;font-size: 13px;&quot;&gt;+ InitSchedule（inSchedule） //初始化所有shedule&lt;/span&gt;&lt;/font&gt;&lt;/p&gt;&lt;p style=&quot;margin: 0px 0px 0px 4px; font-size: 13px;&quot;&gt;&lt;font style=&quot;font-size: 13px;&quot; face=&quot;Mebcg4QQO1nsYdmMe52B&quot;&gt;+ ClearSchedule（inSchedule）清除所有shedule&lt;/font&gt;&lt;/p&gt;&lt;p style=&quot;margin: 0px 0px 0px 4px; font-size: 13px;&quot;&gt;&lt;font style=&quot;font-size: 13px;&quot; face=&quot;Mebcg4QQO1nsYdmMe52B&quot;&gt;&lt;br&gt;&lt;/font&gt;&lt;/p&gt;&lt;p style=&quot;margin: 0px 0px 0px 4px; font-size: 13px;&quot;&gt;&lt;font style=&quot;font-size: 13px;&quot; face=&quot;Mebcg4QQO1nsYdmMe52B&quot;&gt;包组状态相关：&lt;/font&gt;&lt;/p&gt;&lt;p style=&quot;margin: 0px 0px 0px 4px; font-size: 13px;&quot;&gt;&lt;font style=&quot;font-size: 13px;&quot; face=&quot;Mebcg4QQO1nsYdmMe52B&quot;&gt;+ GetGroupsDownloadSize（groupIds） //获取多个包组的下载总进度&lt;/font&gt;&lt;/p&gt;&lt;p style=&quot;margin: 0px 0px 0px 4px; font-size: 13px;&quot;&gt;&lt;font style=&quot;font-size: 13px;&quot; face=&quot;Mebcg4QQO1nsYdmMe52B&quot;&gt;+ CheckGroupStateAndMount（groupId） //&lt;span style=&quot;font-style: italic;&quot;&gt;检测包组资源状态并尝试&lt;/span&gt;&lt;span style=&quot;font-style: italic;&quot;&gt;mount&lt;/span&gt;&lt;/font&gt;&lt;/p&gt;&lt;p style=&quot;margin: 0px 0px 0px 4px;&quot;&gt;&lt;font style=&quot;font-size: 13px;&quot; face=&quot;Mebcg4QQO1nsYdmMe52B&quot;&gt;&lt;span style=&quot;font-style: italic;&quot;&gt;+&amp;nbsp;&lt;/span&gt;&lt;/font&gt;&lt;font&gt;&lt;span style=&quot;background-color: initial; font-size: 13px;&quot;&gt;&lt;font face=&quot;Mebcg4QQO1nsYdmMe52B&quot;&gt;&lt;i&gt;CheckGroupStateAndMountAndCancelDelete（groupId） //&lt;/i&gt;&lt;/font&gt;&lt;/span&gt;&lt;span style=&quot;background-color: initial; font-size: 13px;&quot;&gt;&lt;font face=&quot;Mebcg4QQO1nsYdmMe52B&quot;&gt;&lt;i&gt;检测包组资源状态并尝试mount且自动移除删除标记&lt;/i&gt;&lt;/font&gt;&lt;/span&gt;&lt;/font&gt;&lt;/p&gt;&lt;p style=&quot;margin: 0px 0px 0px 4px;&quot;&gt;&lt;font style=&quot;font-size: 13px;&quot; face=&quot;Mebcg4QQO1nsYdmMe52B&quot;&gt;&lt;span style=&quot;font-style: italic;&quot;&gt;+&amp;nbsp;&lt;/span&gt;&lt;/font&gt;&lt;span style=&quot;background-color: initial; font-size: 13px;&quot;&gt;&lt;font face=&quot;Mebcg4QQO1nsYdmMe52B&quot;&gt;&lt;i&gt;GetChunkGroupState（groupId， bRecheckState） //重新刷新包组信息或不刷新并获取包组状态&lt;/i&gt;&lt;/font&gt;&lt;/span&gt;&lt;/p&gt;&lt;p style=&quot;margin: 0px 0px 0px 4px;&quot;&gt;&lt;font style=&quot;font-size: 13px;&quot; face=&quot;Mebcg4QQO1nsYdmMe52B&quot;&gt;&lt;span style=&quot;font-style: italic;&quot;&gt;+&amp;nbsp;&lt;/span&gt;&lt;/font&gt;&lt;span style=&quot;background-color: initial; font-size: 13px;&quot;&gt;&lt;font face=&quot;Mebcg4QQO1nsYdmMe52B&quot;&gt;&lt;i&gt;IsChunkGroupReady（groupId， bRecheckState） //包组是否已经下载完成&lt;/i&gt;&lt;/font&gt;&lt;/span&gt;&lt;/p&gt;&lt;p style=&quot;margin: 0px 0px 0px 4px;&quot;&gt;&lt;span style=&quot;background-color: initial; font-size: 13px;&quot;&gt;&lt;font face=&quot;Mebcg4QQO1nsYdmMe52B&quot;&gt;&lt;i&gt;+&amp;nbsp;&lt;/i&gt;&lt;/font&gt;&lt;/span&gt;&lt;font&gt;&lt;span style=&quot;background-color: initial; font-size: 13px;&quot;&gt;&lt;font face=&quot;Mebcg4QQO1nsYdmMe52B&quot;&gt;&lt;i&gt;CheckPak（pakName） //&lt;/i&gt;&lt;/font&gt;&lt;/span&gt;&lt;span style=&quot;background-color: initial; font-size: 13px;&quot;&gt;&lt;font face=&quot;Mebcg4QQO1nsYdmMe52B&quot;&gt;&lt;i&gt;检查pak包是否存在，以及是否已经mount&lt;/i&gt;&lt;/font&gt;&lt;/span&gt;&lt;/font&gt;&lt;/p&gt;&lt;p style=&quot;margin: 0px 0px 0px 4px;&quot;&gt;&lt;span style=&quot;background-color: initial; font-size: 13px;&quot;&gt;&lt;font face=&quot;Mebcg4QQO1nsYdmMe52B&quot;&gt;&lt;i&gt;&lt;br&gt;&lt;/i&gt;&lt;/font&gt;&lt;/span&gt;&lt;/p&gt;&lt;p style=&quot;margin: 0px 0px 0px 4px; font-size: 13px;&quot;&gt;&lt;font style=&quot;font-size: 13px;&quot; face=&quot;Mebcg4QQO1nsYdmMe52B&quot;&gt;&lt;span style=&quot;font-style: italic;&quot;&gt;界面相关：&lt;/span&gt;&lt;/font&gt;&lt;/p&gt;&lt;p style=&quot;margin: 0px 0px 0px 4px;&quot;&gt;&lt;font style=&quot;font-size: 13px;&quot; face=&quot;Mebcg4QQO1nsYdmMe52B&quot;&gt;&lt;span style=&quot;font-style: italic;&quot;&gt;+&amp;nbsp;&lt;/span&gt;&lt;/font&gt;&lt;span style=&quot;background-color: initial; font-size: 13px;&quot;&gt;&lt;font face=&quot;Mebcg4QQO1nsYdmMe52B&quot;&gt;&lt;i&gt;ShowInMgrGroupsReward（） //下载管理界面是否有未领取的奖励&lt;/i&gt;&lt;/font&gt;&lt;/span&gt;&lt;/p&gt;&lt;p style=&quot;margin: 0px 0px 0px 4px;&quot;&gt;&lt;span style=&quot;background-color: initial; font-size: 13px;&quot;&gt;&lt;font face=&quot;Mebcg4QQO1nsYdmMe52B&quot;&gt;&lt;i&gt;+&amp;nbsp;&lt;/i&gt;&lt;/font&gt;&lt;/span&gt;&lt;span style=&quot;background-color: initial; font-size: 13px;&quot;&gt;&lt;font face=&quot;Mebcg4QQO1nsYdmMe52B&quot;&gt;&lt;i&gt;ShowInMgrGroupsFinished（） //下载管理界面显示下载任务是否已经全部完成&lt;/i&gt;&lt;/font&gt;&lt;/span&gt;&lt;/p&gt;&lt;p style=&quot;margin: 0px 0px 0px 4px;&quot;&gt;&lt;span style=&quot;background-color: initial; font-size: 13px;&quot;&gt;&lt;font face=&quot;Mebcg4QQO1nsYdmMe52B&quot;&gt;&lt;i&gt;+&amp;nbsp;&lt;/i&gt;&lt;/font&gt;&lt;/span&gt;&lt;font&gt;&lt;span style=&quot;background-color: initial; font-size: 13px;&quot;&gt;&lt;font face=&quot;Mebcg4QQO1nsYdmMe52B&quot;&gt;&lt;i&gt;ClearShowInMgrGroupsReward（） //&lt;/i&gt;&lt;/font&gt;&lt;/span&gt;&lt;span style=&quot;background-color: initial; font-size: 13px;&quot;&gt;&lt;font face=&quot;Mebcg4QQO1nsYdmMe52B&quot;&gt;&lt;i&gt;清除下载管理界面任务的奖励状态&lt;/i&gt;&lt;/font&gt;&lt;/span&gt;&lt;/font&gt;&lt;/p&gt;&lt;p style=&quot;margin: 0px 0px 0px 4px;&quot;&gt;&lt;font&gt;&lt;span style=&quot;background-color: initial; font-size: 13px;&quot;&gt;&lt;font face=&quot;Mebcg4QQO1nsYdmMe52B&quot;&gt;&lt;i&gt;+&amp;nbsp;&lt;/i&gt;&lt;/font&gt;&lt;/span&gt;&lt;/font&gt;&lt;span style=&quot;background-color: initial; font-size: 13px;&quot;&gt;&lt;font face=&quot;Mebcg4QQO1nsYdmMe52B&quot;&gt;&lt;i&gt;GetALLMainUIGroup（） //获取主界面UI包组&lt;/i&gt;&lt;/font&gt;&lt;/span&gt;&lt;/p&gt;&lt;p style=&quot;margin: 0px 0px 0px 4px;&quot;&gt;&lt;span style=&quot;background-color: initial; font-size: 13px;&quot;&gt;&lt;font face=&quot;Mebcg4QQO1nsYdmMe52B&quot;&gt;&lt;i&gt;+&amp;nbsp;&lt;/i&gt;&lt;/font&gt;&lt;/span&gt;&lt;font&gt;&lt;span style=&quot;background-color: initial; font-size: 13px;&quot;&gt;&lt;font face=&quot;Mebcg4QQO1nsYdmMe52B&quot;&gt;&lt;i&gt;CheckMianUINeedDownload（UIName） //&lt;/i&gt;&lt;/font&gt;&lt;/span&gt;&lt;span style=&quot;background-color: initial; font-size: 13px;&quot;&gt;&lt;font face=&quot;Mebcg4QQO1nsYdmMe52B&quot;&gt;&lt;i&gt;对应UI是否要下载分包资源&lt;/i&gt;&lt;/font&gt;&lt;/span&gt;&lt;/font&gt;&lt;/p&gt;&lt;p style=&quot;margin: 0px 0px 0px 4px;&quot;&gt;&lt;font&gt;&lt;span style=&quot;background-color: initial; font-size: 13px;&quot;&gt;&lt;font face=&quot;Mebcg4QQO1nsYdmMe52B&quot;&gt;&lt;i&gt;+&amp;nbsp;&lt;/i&gt;&lt;/font&gt;&lt;/span&gt;&lt;/font&gt;&lt;span style=&quot;background-color: initial; font-size: 13px;&quot;&gt;&lt;font face=&quot;Mebcg4QQO1nsYdmMe52B&quot;&gt;&lt;i&gt;GetMainUINeedDownLoadGroup（UIName） //根据UI获取需要下载的pak&lt;/i&gt;&lt;/font&gt;&lt;/span&gt;&lt;/p&gt;&lt;p style=&quot;margin: 0px 0px 0px 4px;&quot;&gt;&lt;font style=&quot;font-size: 13px;&quot; face=&quot;Mebcg4QQO1nsYdmMe52B&quot;&gt;&lt;span style=&quot;font-style: italic;&quot;&gt;+&amp;nbsp;&lt;/span&gt;&lt;/font&gt;&lt;font&gt;&lt;span style=&quot;background-color: initial; font-size: 13px;&quot;&gt;&lt;font face=&quot;Mebcg4QQO1nsYdmMe52B&quot;&gt;&lt;i&gt;CheckShowInMgrGroupsDownloadFinish（） //&lt;/i&gt;&lt;/font&gt;&lt;/span&gt;&lt;span style=&quot;background-color: initial; font-size: 13px;&quot;&gt;&lt;font face=&quot;Mebcg4QQO1nsYdmMe52B&quot;&gt;&lt;i&gt;下载管理界面的任务下载完成的回调&lt;/i&gt;&lt;/font&gt;&lt;/span&gt;&lt;/font&gt;&lt;/p&gt;&lt;p style=&quot;margin: 0px 0px 0px 4px;&quot;&gt;&lt;font&gt;&lt;span style=&quot;background-color: initial; font-size: 13px;&quot;&gt;&lt;font face=&quot;Mebcg4QQO1nsYdmMe52B&quot;&gt;&lt;i&gt;+&amp;nbsp;&lt;/i&gt;&lt;/font&gt;&lt;/span&gt;&lt;/font&gt;&lt;font&gt;&lt;span style=&quot;background-color: initial; font-size: 13px;&quot;&gt;&lt;font face=&quot;Mebcg4QQO1nsYdmMe52B&quot;&gt;&lt;i&gt;ReportShowInMgrGroupsDownloadFinish（taskId） //&lt;/i&gt;&lt;/font&gt;&lt;/span&gt;&lt;span style=&quot;background-color: initial; font-size: 13px;&quot;&gt;&lt;font face=&quot;Mebcg4QQO1nsYdmMe52B&quot;&gt;&lt;i&gt;客户端上报下载任务已完成&lt;/i&gt;&lt;/font&gt;&lt;/span&gt;&lt;/font&gt;&lt;/p&gt;&lt;p style=&quot;margin: 0px 0px 0px 4px;&quot;&gt;&lt;font&gt;&lt;span style=&quot;background-color: initial; font-size: 13px;&quot;&gt;&lt;font face=&quot;Mebcg4QQO1nsYdmMe52B&quot;&gt;&lt;i&gt;&lt;br&gt;&lt;/i&gt;&lt;/font&gt;&lt;/span&gt;&lt;/font&gt;&lt;/p&gt;&lt;p style=&quot;margin: 0px 0px 0px 4px;&quot;&gt;&lt;font&gt;&lt;/font&gt;&lt;/p&gt;&lt;div style=&quot;background-color:#262626;color:#d0d0d0&quot;&gt;&lt;pre style=&quot;font-family:&#39;JetBrains Mono&#39;,monospace;font-size:14.3pt;&quot;&gt;RegisterEvent:&lt;/pre&gt;&lt;pre style=&quot;font-family:&#39;JetBrains Mono&#39;,monospace;font-size:14.3pt;&quot;&gt;+ OnSwitchScene():ON_REAL_SWITCH_SCENE&lt;/pre&gt;&lt;pre style=&quot;font-family:&#39;JetBrains Mono&#39;,monospace;font-size:14.3pt;&quot;&gt;+ OnTryReconnect()：Global&lt;span style=&quot;font-size: 14.3pt; white-space: normal; color: rgb(189, 189, 189);&quot;&gt;.&lt;/span&gt;&lt;span style=&quot;font-size: 14.3pt; white-space: normal;&quot;&gt;OnGameNetworkTryReconnnect&lt;/span&gt;&lt;/pre&gt;&lt;pre style=&quot;font-family:&#39;JetBrains Mono&#39;,monospace;font-size:14.3pt;&quot;&gt;&lt;span style=&quot;font-size: 14.3pt; white-space: normal;&quot;&gt;+&amp;nbsp;&lt;/span&gt;OnGameServerConnected():OnGameServerConnected&lt;/pre&gt;&lt;pre style=&quot;font-family:&#39;JetBrains Mono&#39;,monospace;font-size:14.3pt;&quot;&gt;+ OnGameServerConnected():ON_PLAYER_AFTER_LOGIN_NTF&lt;/pre&gt;&lt;/div&gt;&lt;p style=&quot;margin: 0px 0px 0px 4px; font-size: 13px;&quot;&gt;&lt;br&gt;&lt;/p&gt;&lt;p style=&quot;margin: 0px 0px 0px 4px; font-size: 13px;&quot;&gt;&lt;font color=&quot;#ff0000&quot;&gt;意义不明&lt;/font&gt;：&lt;/p&gt;&lt;p style=&quot;margin: 0px 0px 0px 4px; font-size: 13px;&quot;&gt;+ GetNonessentialpakGroupCheckInfo（matchTypeId） //获取MatchData非必要包组check信息&lt;/p&gt;&lt;p style=&quot;margin: 0px 0px 0px 4px; font-size: 13px;&quot;&gt;+ SaveNonessentialpakGroupCheckInfo（matchTypeId， val） //修改MatchData非必要包组check信息&lt;/p&gt;&lt;p style=&quot;margin: 0px 0px 0px 4px; font-size: 13px;&quot;&gt;+ IsInWaitSceneDownloadChunkGroups（inGroupId）&lt;/p&gt;" style="verticalAlign=top;align=left;overflow=fill;html=1;whiteSpace=wrap;fillColor=#fff2cc;strokeColor=#d6b656;" parent="1" vertex="1">
          <mxGeometry x="-2790" y="450" width="740" height="1340" as="geometry" />
        </mxCell>
        <mxCell id="Y6v7ilCjQGHOnKSHEXt1-11" value="&lt;p style=&quot;margin:0px;margin-top:4px;text-align:center;text-decoration:underline;&quot;&gt;&lt;span style=&quot;background-color: initial; text-align: left;&quot;&gt;EPufferInstanceState&lt;/span&gt;&lt;b&gt;:Enum&lt;/b&gt;&lt;/p&gt;&lt;hr size=&quot;1&quot; style=&quot;border-style:solid;&quot;&gt;&lt;p style=&quot;margin:0px;margin-left:8px;&quot;&gt;Invalid =&amp;nbsp; 0, //不可用状态&lt;/p&gt;&lt;p style=&quot;margin:0px;margin-left:8px;&quot;&gt;Initing = 1, //等待初始化完成&lt;/p&gt;&lt;p style=&quot;margin:0px;margin-left:8px;&quot;&gt;InitFailed = 2, //初始化失败&lt;/p&gt;&lt;p style=&quot;margin:0px;margin-left:8px;&quot;&gt;&lt;span style=&quot;background-color: initial;&quot;&gt;Ready&lt;/span&gt;= 3,&amp;nbsp; //初始化完成，可以开始下载获取数据了&lt;/p&gt;&lt;p style=&quot;margin:0px;margin-left:8px;&quot;&gt;Downloading = 4, //下载数据中&lt;/p&gt;&lt;p style=&quot;margin:0px;margin-left:8px;&quot;&gt;Closed/WaitDestroy = 5 , -- puffer已经关闭了初始化相关数据&lt;/p&gt;" style="verticalAlign=top;align=left;overflow=fill;html=1;whiteSpace=wrap;fillColor=#dae8fc;strokeColor=#6c8ebf;" parent="1" vertex="1">
          <mxGeometry x="260" y="1130" width="390" height="130" as="geometry" />
        </mxCell>
        <mxCell id="Y6v7ilCjQGHOnKSHEXt1-12" value="&lt;p style=&quot;margin:0px;margin-top:4px;text-align:center;&quot;&gt;&lt;b&gt;MoePakVO&lt;/b&gt;&lt;/p&gt;&lt;hr size=&quot;1&quot; style=&quot;border-style:solid;&quot;&gt;&lt;p style=&quot;margin:0px;margin-left:4px;&quot;&gt;+ PakName:FString&lt;/p&gt;&lt;p style=&quot;margin:0px;margin-left:4px;&quot;&gt;+ PakSize: float&lt;/p&gt;&lt;p style=&quot;margin:0px;margin-left:4px;&quot;&gt;+ PakMd5: FString&lt;/p&gt;&lt;p style=&quot;margin:0px;margin-left:4px;&quot;&gt;- isStaticPak:bool&lt;br&gt;&lt;/p&gt;&lt;hr size=&quot;1&quot; style=&quot;border-style:solid;&quot;&gt;&lt;p style=&quot;margin:0px;margin-left:4px;&quot;&gt;&lt;br&gt;&lt;/p&gt;" style="verticalAlign=top;align=left;overflow=fill;html=1;whiteSpace=wrap;" parent="1" vertex="1">
          <mxGeometry x="-30" y="220" width="160" height="110" as="geometry" />
        </mxCell>
        <mxCell id="Y6v7ilCjQGHOnKSHEXt1-13" value="&lt;p style=&quot;margin:0px;margin-top:4px;text-align:center;&quot;&gt;&lt;b&gt;MoeGameManager&lt;/b&gt;&lt;/p&gt;&lt;hr size=&quot;1&quot; style=&quot;border-style:solid;&quot;&gt;&lt;p style=&quot;margin:0px;margin-left:4px;&quot;&gt;+ ChunkGroupManager:ChunkGroupManager&lt;/p&gt;&lt;p style=&quot;margin:0px;margin-left:4px;&quot;&gt;+ MoePakManager&lt;/p&gt;&lt;hr size=&quot;1&quot; style=&quot;border-style:solid;&quot;&gt;&lt;p style=&quot;margin:0px;margin-left:4px;&quot;&gt;+ GetPakNameListFromFeatureName(FString FeatureName)&amp;nbsp; //配置1： 玩法模式表， 配置2： FeatureInfo.json&lt;br&gt;&lt;/p&gt;" style="verticalAlign=top;align=left;overflow=fill;html=1;whiteSpace=wrap;fillColor=#ffe6cc;strokeColor=#d79b00;" parent="1" vertex="1">
          <mxGeometry x="-2640" y="-300" width="350" height="130" as="geometry" />
        </mxCell>
        <mxCell id="Y6v7ilCjQGHOnKSHEXt1-14" value="&lt;p style=&quot;margin:0px;margin-top:4px;text-align:center;&quot;&gt;&lt;b&gt;MoePakMergeTask&lt;/b&gt;&lt;/p&gt;&lt;p style=&quot;margin:0px;margin-top:4px;text-align:center;&quot;&gt;&lt;b&gt;（处理pak的合并的具体操作，合并和移动）&lt;/b&gt;&lt;/p&gt;&lt;hr size=&quot;1&quot; style=&quot;border-style:solid;&quot;&gt;&lt;p style=&quot;margin:0px;margin-left:4px;&quot;&gt;+ field: Type&lt;/p&gt;&lt;hr size=&quot;1&quot; style=&quot;border-style:solid;&quot;&gt;&lt;p style=&quot;margin: 0px 0px 0px 4px; font-size: 13px;&quot;&gt;&lt;font style=&quot;font-size: 13px;&quot;&gt;+&amp;nbsp;DoMerge()&lt;/font&gt;&lt;/p&gt;&lt;p style=&quot;margin: 0px 0px 0px 4px; font-size: 13px;&quot;&gt;&lt;font style=&quot;font-size: 13px;&quot;&gt;+&amp;nbsp;UpdateMerge()&lt;/font&gt;&lt;/p&gt;&lt;p style=&quot;margin: 0px 0px 0px 4px; font-size: 13px;&quot;&gt;&lt;font style=&quot;font-size: 13px;&quot;&gt;+&amp;nbsp;DoMoveFile()&lt;/font&gt;&lt;/p&gt;&lt;p style=&quot;margin: 0px 0px 0px 4px; font-size: 13px;&quot;&gt;&lt;font style=&quot;font-size: 13px;&quot;&gt;+&amp;nbsp;DoFinished()&lt;/font&gt;&lt;/p&gt;&lt;p style=&quot;margin: 0px 0px 0px 4px; font-size: 13px;&quot;&gt;&lt;font style=&quot;font-size: 13px;&quot;&gt;+&amp;nbsp;DoFailed()&lt;/font&gt;&lt;/p&gt;&lt;p style=&quot;margin: 0px 0px 0px 4px; font-size: 13px;&quot;&gt;&lt;font style=&quot;font-size: 13px;&quot;&gt;+&amp;nbsp;ChangeMergeTaskState(state)&lt;/font&gt;&lt;/p&gt;" style="verticalAlign=top;align=left;overflow=fill;html=1;whiteSpace=wrap;fillColor=#d5e8d4;strokeColor=#82b366;" parent="1" vertex="1">
          <mxGeometry x="-190" y="480" width="370" height="180" as="geometry" />
        </mxCell>
        <mxCell id="Y6v7ilCjQGHOnKSHEXt1-15" value="&lt;p style=&quot;margin:0px;margin-top:4px;text-align:center;&quot;&gt;&lt;b&gt;MoeAssetConst&lt;/b&gt;&lt;/p&gt;&lt;hr size=&quot;1&quot; style=&quot;border-style:solid;&quot;&gt;&lt;p style=&quot;margin:0px;margin-left:4px;&quot;&gt;+ field: Type&lt;/p&gt;&lt;hr size=&quot;1&quot; style=&quot;border-style:solid;&quot;&gt;&lt;p style=&quot;margin:0px;margin-left:4px;&quot;&gt;+ method(): Type&lt;/p&gt;" style="verticalAlign=top;align=left;overflow=fill;html=1;whiteSpace=wrap;" parent="1" vertex="1">
          <mxGeometry x="270" y="250" width="160" height="90" as="geometry" />
        </mxCell>
        <mxCell id="Y6v7ilCjQGHOnKSHEXt1-16" value="Pak下载，加载" style="rounded=0;whiteSpace=wrap;html=1;verticalAlign=top;fontSize=19;fillColor=#dae8fc;strokeColor=#6c8ebf;" parent="1" vertex="1">
          <mxGeometry x="-1290" y="1630" width="880" height="250" as="geometry" />
        </mxCell>
        <mxCell id="Y6v7ilCjQGHOnKSHEXt1-17" value="Puffer" style="rounded=0;whiteSpace=wrap;html=1;" parent="1" vertex="1">
          <mxGeometry x="-1260" y="1694" width="590" height="160" as="geometry" />
        </mxCell>
        <mxCell id="Y6v7ilCjQGHOnKSHEXt1-18" value="Pak Merge" style="rounded=0;whiteSpace=wrap;html=1;" parent="1" vertex="1">
          <mxGeometry x="-650" y="1700" width="210" height="70" as="geometry" />
        </mxCell>
        <mxCell id="Y6v7ilCjQGHOnKSHEXt1-19" value="Pak的校验，解密等" style="rounded=0;whiteSpace=wrap;html=1;" parent="1" vertex="1">
          <mxGeometry x="-650" y="1784" width="210" height="70" as="geometry" />
        </mxCell>
        <mxCell id="Y6v7ilCjQGHOnKSHEXt1-20" value="Pak管理器，管理Pak的加载，下载，mount，unmount" style="rounded=0;whiteSpace=wrap;html=1;fontSize=17;" parent="1" vertex="1">
          <mxGeometry x="-1290" y="1500" width="880" height="120" as="geometry" />
        </mxCell>
        <mxCell id="Y6v7ilCjQGHOnKSHEXt1-21" value="Pak的使用方，各玩法，各系统，可以直接去获取pak的状态，mount，unmount pak，也可以通过chunkgroupmanager来访问pak" style="rounded=0;whiteSpace=wrap;html=1;fillColor=#fff2cc;strokeColor=#d6b656;fontSize=15;" parent="1" vertex="1">
          <mxGeometry x="-1290" y="1320" width="640" height="150" as="geometry" />
        </mxCell>
        <mxCell id="Y6v7ilCjQGHOnKSHEXt1-22" value="下载面板系统" style="rounded=0;whiteSpace=wrap;html=1;" parent="1" vertex="1">
          <mxGeometry x="-1280" y="1220" width="120" height="60" as="geometry" />
        </mxCell>
        <mxCell id="Y6v7ilCjQGHOnKSHEXt1-23" value="MoeGameManager 玩法管理" style="rounded=0;whiteSpace=wrap;html=1;" parent="1" vertex="1">
          <mxGeometry x="-1130" y="1220" width="120" height="60" as="geometry" />
        </mxCell>
        <mxCell id="Y6v7ilCjQGHOnKSHEXt1-24" value="玩法自己的pak管理器&lt;div&gt;MobaPakManager，在玩法内部根据pak的名字去使用pak&lt;/div&gt;" style="rounded=0;whiteSpace=wrap;html=1;" parent="1" vertex="1">
          <mxGeometry x="-630" y="1320" width="200" height="140" as="geometry" />
        </mxCell>
        <mxCell id="Y6v7ilCjQGHOnKSHEXt1-25" value="系统功能" style="rounded=0;whiteSpace=wrap;html=1;" parent="1" vertex="1">
          <mxGeometry x="-980" y="1220" width="120" height="60" as="geometry" />
        </mxCell>
        <mxCell id="Y6v7ilCjQGHOnKSHEXt1-26" value="&lt;div style=&quot;&quot;&gt;&lt;pre style=&quot;text-align: center;&quot;&gt;&lt;font style=&quot;font-size: 13px;&quot; face=&quot;Helvetica&quot;&gt;&lt;b&gt;MoeChunkGroupDownloadSchedule&lt;/b&gt;&lt;/font&gt;&lt;/pre&gt;&lt;pre style=&quot;text-align: center;&quot;&gt;&lt;font style=&quot;font-size: 13px;&quot; face=&quot;Helvetica&quot;&gt;&lt;b&gt;（全局唯一，管理包组下载相关信息）&lt;/b&gt;&lt;/font&gt;&lt;/pre&gt;&lt;/div&gt;&lt;hr size=&quot;1&quot; style=&quot;border-style:solid;&quot;&gt;&lt;p style=&quot;margin: 0px 0px 0px 4px; font-size: 13px;&quot;&gt;&lt;span style=&quot;font-size: 18px;&quot;&gt;+&amp;nbsp;&lt;/span&gt;&lt;font style=&quot;font-size: 13px;&quot; face=&quot;Helvetica&quot;&gt;_pendingCallbackChangeInfo&lt;/font&gt;&lt;/p&gt;&lt;p style=&quot;margin: 0px 0px 0px 4px; font-size: 13px;&quot;&gt;&lt;font style=&quot;font-size: 13px;&quot; face=&quot;YnaZwo0yNkk2F0q75lxV&quot;&gt;+&amp;nbsp;bInitChunkGroupsCheckStateFinished&lt;/font&gt;&lt;/p&gt;&lt;p style=&quot;margin: 0px 0px 0px 4px; font-size: 13px;&quot;&gt;&lt;font style=&quot;font-size: 13px;&quot; face=&quot;YnaZwo0yNkk2F0q75lxV&quot;&gt;+ CurChunkGroup信息映射&lt;/font&gt;&lt;/p&gt;&lt;p style=&quot;margin: 0px 0px 0px 4px; font-size: 13px;&quot;&gt;&lt;font style=&quot;font-size: 13px;&quot; face=&quot;YnaZwo0yNkk2F0q75lxV&quot;&gt;+CurChunkGroupInfoMap&amp;nbsp; //所有需要下载的包组与包组信息字典&lt;/font&gt;&lt;/p&gt;&lt;p style=&quot;margin: 0px 0px 0px 4px; font-size: 13px;&quot;&gt;&lt;font style=&quot;font-size: 13px;&quot; face=&quot;YnaZwo0yNkk2F0q75lxV&quot;&gt;+&amp;nbsp;PufferNotReadyDownloadGroupIdList&lt;/font&gt;&lt;/p&gt;&lt;p style=&quot;margin: 0px 0px 0px 4px; font-size: 13px;&quot;&gt;&lt;font style=&quot;font-size: 13px;&quot; face=&quot;YnaZwo0yNkk2F0q75lxV&quot;&gt;+&amp;nbsp;WaitSceneDownloadGroupIdList&lt;/font&gt;&lt;/p&gt;&lt;p style=&quot;margin: 0px 0px 0px 4px; font-size: 13px;&quot;&gt;&lt;font style=&quot;font-size: 13px;&quot; face=&quot;YnaZwo0yNkk2F0q75lxV&quot;&gt;+&amp;nbsp;pakRefGroupMap&lt;/font&gt;&lt;/p&gt;&lt;p style=&quot;margin: 0px 0px 0px 4px; font-size: 13px;&quot;&gt;&lt;font style=&quot;font-size: 13px;&quot; face=&quot;YnaZwo0yNkk2F0q75lxV&quot;&gt;+ 自动下载配置&lt;/font&gt;&lt;/p&gt;&lt;p style=&quot;margin: 0px 0px 0px 4px; font-size: 13px;&quot;&gt;&lt;font style=&quot;font-size: 13px;&quot; face=&quot;YnaZwo0yNkk2F0q75lxV&quot;&gt;+&amp;nbsp;resultCalls&amp;nbsp; //&lt;span style=&quot;font-style: italic;&quot;&gt;任务结果注册唯一&lt;/span&gt;&lt;span style=&quot;font-style: italic;&quot;&gt;id&lt;/span&gt;&lt;/font&gt;&lt;/p&gt;&lt;p style=&quot;margin: 0px 0px 0px 4px; font-size: 13px;&quot;&gt;&lt;font style=&quot;font-size: 13px;&quot; face=&quot;YnaZwo0yNkk2F0q75lxV&quot;&gt;&lt;span style=&quot;font-style: italic;&quot;&gt;+&amp;nbsp;&lt;/span&gt;progressCalls&amp;nbsp; //&lt;span style=&quot;font-style: italic;&quot;&gt;任务进度回调&lt;/span&gt;&lt;/font&gt;&lt;/p&gt;&lt;p style=&quot;margin: 0px 0px 0px 4px; font-size: 13px;&quot;&gt;&lt;font style=&quot;font-size: 13px;&quot; face=&quot;YnaZwo0yNkk2F0q75lxV&quot;&gt;&lt;span style=&quot;font-style: italic;&quot;&gt;+&amp;nbsp;&lt;/span&gt;progressRegisterId&amp;nbsp; //&lt;span style=&quot;font-style: italic;&quot;&gt;任务进度注册唯一&lt;/span&gt;&lt;span style=&quot;font-style: italic;&quot;&gt;id&lt;/span&gt;&lt;/font&gt;&lt;/p&gt;&lt;p style=&quot;margin: 0px 0px 0px 4px;&quot;&gt;&lt;font style=&quot;font-size: 13px;&quot; face=&quot;YnaZwo0yNkk2F0q75lxV&quot;&gt;&lt;span style=&quot;font-style: italic;&quot;&gt;+&amp;nbsp;&lt;/span&gt;&lt;/font&gt;&lt;span style=&quot;background-color: initial; font-size: 13px;&quot;&gt;&lt;font face=&quot;YnaZwo0yNkk2F0q75lxV&quot;&gt;&lt;i&gt;serverConnectedTimer&amp;nbsp; //&lt;font color=&quot;#ff0000&quot;&gt;上一次连接上GS的时间？&lt;/font&gt;&lt;/i&gt;&lt;/font&gt;&lt;/span&gt;&lt;/p&gt;&lt;hr size=&quot;1&quot; style=&quot;border-style:solid;&quot;&gt;&lt;p style=&quot;margin: 0px 0px 0px 4px; font-size: 13px;&quot;&gt;&lt;span style=&quot;background-color: rgb(38, 38, 38); color: rgb(189, 189, 189); font-family: &amp;quot;JetBrains Mono&amp;quot;, monospace; font-size: 14.3pt;&quot;&gt;获取下载信息相关：&lt;/span&gt;&lt;/p&gt;&lt;p style=&quot;margin: 0px 0px 0px 4px; font-size: 13px;&quot;&gt;&lt;span style=&quot;font-family: &amp;quot;JetBrains Mono&amp;quot;, monospace; font-size: 14.3pt; background-color: rgb(38, 38, 38); color: rgb(189, 189, 189);&quot;&gt;+&amp;nbsp;&lt;/span&gt;&lt;font&gt;&lt;span style=&quot;font-family: &amp;quot;JetBrains Mono&amp;quot;, monospace; font-size: 14.3pt; background-color: rgb(38, 38, 38); color: rgb(208, 208, 208);&quot;&gt;GetOrCreateGroupDownloadInfo&lt;/span&gt;&lt;span style=&quot;font-family: &amp;quot;JetBrains Mono&amp;quot;, monospace; font-size: 14.3pt; background-color: rgb(38, 38, 38); color: rgb(189, 189, 189);&quot;&gt;（&lt;/span&gt;&lt;span style=&quot;font-family: &amp;quot;JetBrains Mono&amp;quot;, monospace; font-size: 14.3pt; background-color: rgb(38, 38, 38); color: rgb(208, 208, 208);&quot;&gt;groupId&lt;/span&gt;&lt;span style=&quot;font-family: &amp;quot;JetBrains Mono&amp;quot;, monospace; font-size: 14.3pt; background-color: rgb(38, 38, 38); color: rgb(189, 189, 189);&quot;&gt;， &lt;/span&gt;&lt;span style=&quot;font-family: &amp;quot;JetBrains Mono&amp;quot;, monospace; font-size: 14.3pt; background-color: rgb(38, 38, 38); color: rgb(208, 208, 208);&quot;&gt;reCheck&lt;/span&gt;&lt;span style=&quot;font-family: &amp;quot;JetBrains Mono&amp;quot;, monospace; font-size: 14.3pt; background-color: rgb(38, 38, 38); color: rgb(189, 189, 189);&quot;&gt;） --&lt;/span&gt;&lt;span style=&quot;color: rgb(133, 196, 108); font-style: italic; font-family: 宋体, monospace; font-size: 14.3pt; background-color: rgb(38, 38, 38);&quot;&gt;获取包组资源下载信息，&lt;/span&gt;&lt;span style=&quot;font-family: &amp;quot;JetBrains Mono&amp;quot;, monospace; font-size: 14.3pt; background-color: rgb(38, 38, 38); color: rgb(133, 196, 108); font-style: italic;&quot;&gt;reCheck &lt;/span&gt;&lt;span style=&quot;font-size: 14.3pt; background-color: rgb(38, 38, 38); color: rgb(133, 196, 108); font-style: italic; font-family: 宋体, monospace;&quot;&gt;刷新状态比较耗时&lt;/span&gt;&lt;span style=&quot;font-size: 14.3pt; background-color: rgb(38, 38, 38); color: rgb(208, 208, 208); font-family: 宋体, monospace;&quot;&gt;，&lt;/span&gt;&lt;span style=&quot;font-size: 14.3pt; background-color: rgb(38, 38, 38); color: rgb(133, 196, 108); font-style: italic; font-family: 宋体, monospace;&quot;&gt;内部有很多高频的查询状态需求，传&lt;/span&gt;&lt;span style=&quot;font-family: &amp;quot;JetBrains Mono&amp;quot;, monospace; font-size: 14.3pt; background-color: rgb(38, 38, 38); color: rgb(133, 196, 108); font-style: italic;&quot;&gt;false&lt;/span&gt;&lt;span style=&quot;font-size: 14.3pt; background-color: rgb(38, 38, 38); color: rgb(133, 196, 108); font-style: italic; font-family: 宋体, monospace;&quot;&gt;避免不必要的刷新&lt;/span&gt;&lt;/font&gt;&lt;/p&gt;&lt;p style=&quot;margin: 0px 0px 0px 4px; font-size: 13px;&quot;&gt;&lt;span style=&quot;font-family: &amp;quot;JetBrains Mono&amp;quot;, monospace; font-size: 14.3pt; background-color: rgb(38, 38, 38); color: rgb(189, 189, 189);&quot;&gt;+&amp;nbsp;&lt;/span&gt;&lt;font&gt;&lt;span style=&quot;font-family: &amp;quot;JetBrains Mono&amp;quot;, monospace; font-size: 14.3pt; background-color: rgb(38, 38, 38); color: rgb(57, 204, 155);&quot;&gt;GetIsInAppDownloadInfo&lt;/span&gt;&lt;span style=&quot;font-family: &amp;quot;JetBrains Mono&amp;quot;, monospace; font-size: 14.3pt; background-color: rgb(38, 38, 38); color: rgb(189, 189, 189);&quot;&gt;（&lt;/span&gt;&lt;span style=&quot;font-family: &amp;quot;JetBrains Mono&amp;quot;, monospace; font-size: 14.3pt; background-color: rgb(38, 38, 38); color: rgb(57, 204, 155);&quot;&gt;group&lt;/span&gt;&lt;span style=&quot;font-family: &amp;quot;JetBrains Mono&amp;quot;, monospace; font-size: 14.3pt; background-color: rgb(38, 38, 38); color: rgb(189, 189, 189);&quot;&gt;）：包组是否在app中就已经下载完了&lt;/span&gt;&lt;/font&gt;&lt;/p&gt;&lt;p style=&quot;margin: 0px 0px 0px 4px; font-size: 13px;&quot;&gt;&lt;span style=&quot;font-family: &amp;quot;JetBrains Mono&amp;quot;, monospace; font-size: 14.3pt; background-color: rgb(38, 38, 38); color: rgb(189, 189, 189);&quot;&gt;+&amp;nbsp;&lt;/span&gt;&lt;font&gt;&lt;span style=&quot;font-family: &amp;quot;JetBrains Mono&amp;quot;, monospace; font-size: 14.3pt; background-color: rgb(38, 38, 38); color: rgb(57, 204, 155);&quot;&gt;GetOrCreateChunkGroupInfo&lt;/span&gt;&lt;span style=&quot;font-family: &amp;quot;JetBrains Mono&amp;quot;, monospace; font-size: 14.3pt; background-color: rgb(38, 38, 38); color: rgb(189, 189, 189);&quot;&gt;（&lt;/span&gt;&lt;span style=&quot;font-family: &amp;quot;JetBrains Mono&amp;quot;, monospace; font-size: 14.3pt; background-color: rgb(38, 38, 38); color: rgb(57, 204, 155);&quot;&gt;groupId&lt;/span&gt;&lt;span style=&quot;font-family: &amp;quot;JetBrains Mono&amp;quot;, monospace; font-size: 14.3pt; background-color: rgb(38, 38, 38); color: rgb(189, 189, 189);&quot;&gt;）：&lt;/span&gt;&lt;span style=&quot;background-color: rgb(38, 38, 38); color: rgb(133, 196, 108); font-family: 宋体, monospace; font-size: 19.0667px; font-style: italic;&quot;&gt;获取包组信息&lt;/span&gt;&lt;/font&gt;&lt;/p&gt;&lt;p style=&quot;margin: 0px 0px 0px 4px; font-size: 13px;&quot;&gt;&lt;span style=&quot;background-color: rgb(38, 38, 38); color: rgb(133, 196, 108); font-family: 宋体, monospace; font-size: 19.0667px; font-style: italic;&quot;&gt;+&amp;nbsp;&lt;/span&gt;&lt;/p&gt;&lt;p style=&quot;margin: 0px 0px 0px 4px; font-size: 13px;&quot;&gt;&lt;span style=&quot;background-color: rgb(38, 38, 38); color: rgb(133, 196, 108); font-family: 宋体, monospace; font-size: 19.0667px; font-style: italic;&quot;&gt;&lt;br&gt;&lt;/span&gt;&lt;/p&gt;&lt;p style=&quot;margin: 0px 0px 0px 4px; font-size: 13px;&quot;&gt;&lt;span style=&quot;background-color: rgb(38, 38, 38); color: rgb(133, 196, 108); font-family: 宋体, monospace; font-size: 19.0667px; font-style: italic;&quot;&gt;puffer相关：&lt;/span&gt;&lt;/p&gt;&lt;p style=&quot;margin: 0px 0px 0px 4px; font-size: 13px;&quot;&gt;&lt;span style=&quot;background-color: rgb(38, 38, 38); color: rgb(133, 196, 108); font-family: 宋体, monospace; font-size: 19.0667px; font-style: italic;&quot;&gt;+&amp;nbsp;&lt;/span&gt;&lt;/p&gt;&lt;p style=&quot;margin: 0px 0px 0px 4px; font-size: 13px;&quot;&gt;&lt;span style=&quot;background-color: rgb(38, 38, 38); color: rgb(133, 196, 108); font-family: 宋体, monospace; font-size: 19.0667px; font-style: italic;&quot;&gt;&lt;br&gt;&lt;/span&gt;&lt;/p&gt;&lt;p style=&quot;margin: 0px 0px 0px 4px; font-size: 13px;&quot;&gt;&lt;span style=&quot;background-color: rgb(38, 38, 38); color: rgb(133, 196, 108); font-family: 宋体, monospace; font-size: 19.0667px; font-style: italic;&quot;&gt;连接服务器相关：&lt;/span&gt;&lt;/p&gt;&lt;p style=&quot;margin: 0px 0px 0px 4px;&quot;&gt;&lt;span style=&quot;font-size: 19.0667px; background-color: rgb(38, 38, 38); color: rgb(133, 196, 108); font-family: 宋体, monospace; font-style: italic;&quot;&gt;+&amp;nbsp;&lt;/span&gt;&lt;span style=&quot;background-color: initial; font-size: 19.0667px;&quot;&gt;&lt;font face=&quot;宋体, monospace&quot;&gt;&lt;i style=&quot;&quot;&gt;&lt;font color=&quot;#85c46c&quot;&gt;OnTryReconnect()：重新连接后的回调，&lt;/font&gt;&lt;font color=&quot;#ff0000&quot;&gt;关注连接上了什么？&lt;/font&gt;&lt;/i&gt;&lt;/font&gt;&lt;/span&gt;&lt;/p&gt;&lt;p style=&quot;margin: 0px 0px 0px 4px;&quot;&gt;&lt;span style=&quot;background-color: initial; font-size: 19.0667px;&quot;&gt;&lt;font face=&quot;宋体, monospace&quot; color=&quot;#85c46c&quot;&gt;&lt;i&gt;+&amp;nbsp;&lt;/i&gt;&lt;/font&gt;&lt;/span&gt;&lt;span style=&quot;background-color: initial; font-size: 19.0667px;&quot;&gt;&lt;font face=&quot;宋体, monospace&quot; color=&quot;#85c46c&quot;&gt;&lt;i&gt;OnGameServerConnected()：连接上服务器的回调&lt;/i&gt;&lt;/font&gt;&lt;/span&gt;&lt;/p&gt;&lt;p style=&quot;margin: 0px 0px 0px 4px;&quot;&gt;&lt;span style=&quot;background-color: initial; font-size: 19.0667px;&quot;&gt;&lt;font face=&quot;宋体, monospace&quot; color=&quot;#85c46c&quot;&gt;&lt;i&gt;&lt;br&gt;&lt;/i&gt;&lt;/font&gt;&lt;/span&gt;&lt;/p&gt;&lt;p style=&quot;margin: 0px 0px 0px 4px;&quot;&gt;&lt;font face=&quot;宋体, monospace&quot; color=&quot;#85c46c&quot;&gt;&lt;span style=&quot;font-size: 19.0667px;&quot;&gt;&lt;i&gt;包组状态相关：&lt;/i&gt;&lt;/span&gt;&lt;/font&gt;&lt;/p&gt;&lt;p style=&quot;margin: 0px 0px 0px 4px;&quot;&gt;&lt;font face=&quot;宋体, monospace&quot; color=&quot;#85c46c&quot;&gt;&lt;span style=&quot;font-size: 19.0667px;&quot;&gt;&lt;i&gt;+&amp;nbsp;&lt;/i&gt;&lt;/span&gt;&lt;/font&gt;&lt;span style=&quot;background-color: initial; font-size: 19.0667px;&quot;&gt;&lt;font face=&quot;宋体, monospace&quot; color=&quot;#85c46c&quot;&gt;&lt;i&gt;IsInitChunkGroupsCheckStateFinished()&amp;nbsp; //是否还有包组是否需要检测是否需要下载&lt;/i&gt;&lt;/font&gt;&lt;/span&gt;&lt;/p&gt;&lt;p style=&quot;margin: 0px 0px 0px 4px;&quot;&gt;&lt;span style=&quot;background-color: initial; font-size: 19.0667px;&quot;&gt;&lt;font face=&quot;宋体, monospace&quot; color=&quot;#85c46c&quot;&gt;&lt;i&gt;+&amp;nbsp;&lt;/i&gt;&lt;/font&gt;&lt;/span&gt;&lt;/p&gt;&lt;p style=&quot;margin: 0px 0px 0px 4px;&quot;&gt;&lt;span style=&quot;background-color: initial; font-size: 19.0667px;&quot;&gt;&lt;font face=&quot;宋体, monospace&quot; color=&quot;#85c46c&quot;&gt;&lt;i&gt;&lt;br&gt;&lt;/i&gt;&lt;/font&gt;&lt;/span&gt;&lt;/p&gt;&lt;p style=&quot;margin: 0px 0px 0px 4px;&quot;&gt;&lt;span style=&quot;background-color: initial; font-size: 19.0667px;&quot;&gt;&lt;font face=&quot;宋体, monospace&quot; color=&quot;#85c46c&quot;&gt;&lt;i&gt;包组下载状态相关：&lt;/i&gt;&lt;/font&gt;&lt;/span&gt;&lt;/p&gt;&lt;p style=&quot;margin: 0px 0px 0px 4px;&quot;&gt;&lt;span style=&quot;background-color: initial; font-size: 19.0667px;&quot;&gt;&lt;font face=&quot;宋体, monospace&quot; color=&quot;#85c46c&quot;&gt;&lt;i&gt;+&amp;nbsp;&lt;/i&gt;&lt;/font&gt;&lt;/span&gt;&lt;span style=&quot;background-color: initial; font-size: 19.0667px;&quot;&gt;&lt;font face=&quot;宋体, monospace&quot; color=&quot;#85c46c&quot;&gt;&lt;i&gt;ChangeAutoPauseState(autoPause)：是否把&lt;/i&gt;&lt;/font&gt;&lt;/span&gt;&lt;/p&gt;" style="verticalAlign=top;align=left;overflow=fill;html=1;whiteSpace=wrap;fillColor=#fff2cc;strokeColor=#d6b656;" parent="1" vertex="1">
          <mxGeometry x="-3780" y="1690.5" width="660" height="849.5" as="geometry" />
        </mxCell>
        <mxCell id="Y6v7ilCjQGHOnKSHEXt1-27" value="&lt;div style=&quot;&quot;&gt;&lt;pre style=&quot;text-align: center;&quot;&gt;&lt;font style=&quot;font-size: 13px;&quot; face=&quot;Helvetica&quot;&gt;&lt;b&gt;MoeChunkGroupMountSchedule&lt;/b&gt;&lt;/font&gt;&lt;/pre&gt;&lt;pre style=&quot;text-align: center;&quot;&gt;&lt;font style=&quot;font-size: 13px;&quot; face=&quot;Helvetica&quot;&gt;&lt;b&gt;（全局唯一，管理包组mount相关信息）&lt;/b&gt;&lt;/font&gt;&lt;/pre&gt;&lt;/div&gt;&lt;hr size=&quot;1&quot; style=&quot;border-style:solid;&quot;&gt;&lt;p style=&quot;margin: 0px 0px 0px 4px;&quot;&gt;&lt;font style=&quot;font-size: 13px;&quot;&gt;+&amp;nbsp;&lt;/font&gt;&lt;font style=&quot;font-size: 13px;&quot; face=&quot;Helvetica&quot;&gt;MountedStaticPaks&amp;nbsp; //静态mount的pak&lt;/font&gt;&lt;/p&gt;&lt;p style=&quot;margin: 0px 0px 0px 4px; font-size: 13px;&quot;&gt;&lt;font style=&quot;font-size: 13px;&quot; face=&quot;-vUy2ofsnWeSPUeNyJSD&quot;&gt;+&amp;nbsp;MountedGroups&amp;nbsp; //动态mount的pak&lt;/font&gt;&lt;/p&gt;&lt;hr size=&quot;1&quot; style=&quot;border-style:solid;&quot;&gt;&lt;p style=&quot;margin:0px;margin-left:4px;&quot;&gt;+ method1(Type): Type&lt;br&gt;+ method2(Type, Type): Type&lt;/p&gt;" style="verticalAlign=top;align=left;overflow=fill;html=1;whiteSpace=wrap;fillColor=#fff2cc;strokeColor=#d6b656;" parent="1" vertex="1">
          <mxGeometry x="-3970" y="1400" width="390" height="200" as="geometry" />
        </mxCell>
        <mxCell id="Y6v7ilCjQGHOnKSHEXt1-28" value="&lt;div style=&quot;&quot;&gt;&lt;pre style=&quot;text-align: center;&quot;&gt;&lt;font style=&quot;font-size: 13px;&quot; face=&quot;Helvetica&quot;&gt;PreDownloadInGameApplyModel&lt;/font&gt;&lt;/pre&gt;&lt;pre style=&quot;text-align: center;&quot;&gt;&lt;font style=&quot;font-size: 13px;&quot; face=&quot;Helvetica&quot;&gt;用于判断资源是否预下载好&lt;/font&gt;&lt;/pre&gt;&lt;/div&gt;&lt;hr size=&quot;1&quot; style=&quot;border-style:solid;&quot;&gt;&lt;p style=&quot;margin:0px;margin-left:4px;&quot;&gt;+ field1: Type&lt;br&gt;+ field2: Type&lt;/p&gt;&lt;hr size=&quot;1&quot; style=&quot;border-style:solid;&quot;&gt;&lt;p style=&quot;margin:0px;margin-left:4px;&quot;&gt;+ method1(Type): Type&lt;br&gt;+ method2(Type, Type): Type&lt;/p&gt;" style="verticalAlign=top;align=left;overflow=fill;html=1;whiteSpace=wrap;fillColor=#e1d5e7;strokeColor=#9673a6;" parent="1" vertex="1">
          <mxGeometry x="370" y="450" width="260" height="160" as="geometry" />
        </mxCell>
        <mxCell id="Y6v7ilCjQGHOnKSHEXt1-29" value="&lt;div style=&quot;font-size: 13px; line-height: 100%;&quot;&gt;&lt;pre style=&quot;text-align: center; line-height: 100%;&quot;&gt;&lt;font style=&quot;font-size: 13px;&quot; face=&quot;Helvetica&quot;&gt;&lt;b&gt;EMoePakMergeType：Enum&lt;/b&gt;&lt;/font&gt;&lt;/pre&gt;&lt;pre style=&quot;text-align: center; line-height: 100%;&quot;&gt;&lt;font style=&quot;font-size: 13px;&quot; face=&quot;Helvetica&quot;&gt;下载后的合并时机&lt;/font&gt;&lt;/pre&gt;&lt;/div&gt;&lt;hr size=&quot;1&quot; style=&quot;border-style: solid; font-size: 13px; line-height: 100%;&quot;&gt;&lt;div style=&quot;font-size: 13px; line-height: 100%;&quot;&gt;&lt;pre style=&quot;line-height: 100%;&quot;&gt;&lt;font style=&quot;font-size: 13px;&quot; face=&quot;UFUUev-My0rZtlc6DxNT&quot;&gt;  Immediately：下载后立即合并&lt;/font&gt;&lt;/pre&gt;&lt;/div&gt;&lt;div style=&quot;font-size: 13px; line-height: 100%;&quot;&gt;&lt;pre style=&quot;line-height: 100%;&quot;&gt;&lt;font style=&quot;font-size: 13px;&quot; face=&quot;UFUUev-My0rZtlc6DxNT&quot;&gt;  Lazy：下载后统一合并&lt;/font&gt;&lt;/pre&gt;&lt;/div&gt;" style="verticalAlign=top;align=left;overflow=fill;html=1;whiteSpace=wrap;" parent="1" vertex="1">
          <mxGeometry x="-1570" y="210" width="260" height="140" as="geometry" />
        </mxCell>
        <mxCell id="Y6v7ilCjQGHOnKSHEXt1-30" value="&lt;div style=&quot;font-size: 13px;&quot;&gt;&lt;pre style=&quot;text-align: center;&quot;&gt;&lt;font face=&quot;Helvetica&quot; style=&quot;font-size: 13px;&quot;&gt;&lt;b&gt;MoeAssetsUtils&lt;/b&gt;&lt;/font&gt;&lt;/pre&gt;&lt;pre style=&quot;text-align: center;&quot;&gt;&lt;font face=&quot;Helvetica&quot; style=&quot;font-size: 13px;&quot;&gt;&lt;b&gt;提供资源管理相关的适配器，同时提供给外界查找和调用相关信息的接口&lt;/b&gt;&lt;/font&gt;&lt;/pre&gt;&lt;/div&gt;&lt;hr size=&quot;1&quot; style=&quot;border-style: solid; font-size: 13px;&quot;&gt;&lt;p style=&quot;margin: 0px 0px 0px 4px; font-size: 13px;&quot;&gt;&lt;font style=&quot;font-size: 13px;&quot; face=&quot;ImCB2FSHXsTO1dE28jeQ&quot;&gt;+&amp;nbsp;EventDefine: 事件名映射&lt;/font&gt;&lt;/p&gt;&lt;p style=&quot;margin: 0px 0px 0px 4px; font-size: 13px;&quot;&gt;&lt;font style=&quot;font-size: 13px;&quot; face=&quot;ImCB2FSHXsTO1dE28jeQ&quot;&gt;+&amp;nbsp;DiskSpaceUnit: 存储大小&lt;/font&gt;&lt;/p&gt;&lt;hr size=&quot;1&quot; style=&quot;border-style: solid; font-size: 13px;&quot;&gt;&lt;p style=&quot;margin: 0px 0px 0px 4px; font-size: 13px;&quot;&gt;&lt;font style=&quot;font-size: 13px;&quot; face=&quot;ImCB2FSHXsTO1dE28jeQ&quot;&gt;静态方法：&lt;/font&gt;&lt;/p&gt;&lt;p style=&quot;margin: 0px 0px 0px 4px; font-size: 13px;&quot;&gt;&lt;font style=&quot;font-size: 13px;&quot; face=&quot;ImCB2FSHXsTO1dE28jeQ&quot;&gt;+&amp;nbsp;DeepCopy(SrcTable): 深拷贝&lt;/font&gt;&lt;/p&gt;&lt;p style=&quot;margin: 0px 0px 0px 4px; font-size: 13px;&quot;&gt;&lt;font style=&quot;font-size: 13px;&quot; face=&quot;ImCB2FSHXsTO1dE28jeQ&quot;&gt;+&amp;nbsp;Log(...): log全家桶&lt;/font&gt;&lt;/p&gt;&lt;p style=&quot;margin: 0px 0px 0px 4px; font-size: 13px;&quot;&gt;&lt;font style=&quot;font-size: 13px;&quot; face=&quot;ImCB2FSHXsTO1dE28jeQ&quot;&gt;+&amp;nbsp;ProtectTable(t)：&lt;span style=&quot;font-style: italic;&quot;&gt;返回一个只读的&lt;/span&gt;&lt;span style=&quot;font-style: italic;&quot;&gt;Table&lt;/span&gt;&lt;span style=&quot;font-style: italic;&quot;&gt;，一般用于枚举，读表等情况，防止修改&lt;/span&gt;&lt;/font&gt;&lt;/p&gt;&lt;p style=&quot;margin: 0px 0px 0px 4px; font-size: 13px;&quot;&gt;&lt;font style=&quot;font-size: 13px;&quot; face=&quot;ImCB2FSHXsTO1dE28jeQ&quot;&gt;&lt;span style=&quot;font-style: italic;&quot;&gt;+&amp;nbsp;&lt;/span&gt;GetAutoDownload()：是否自动下载&lt;/font&gt;&lt;/p&gt;&lt;p style=&quot;margin: 0px 0px 0px 4px; font-size: 13px;&quot;&gt;&lt;font style=&quot;font-size: 13px;&quot; face=&quot;ImCB2FSHXsTO1dE28jeQ&quot;&gt;+&amp;nbsp;GetDownloadOnlyWifi()：&lt;span style=&quot;font-style: italic;&quot;&gt;获取&lt;/span&gt;&lt;span style=&quot;font-style: italic;&quot;&gt;onlywifi&lt;/span&gt;&lt;span style=&quot;font-style: italic;&quot;&gt;字段&lt;/span&gt;&lt;/font&gt;&lt;/p&gt;&lt;p style=&quot;margin: 0px 0px 0px 4px; font-size: 13px;&quot;&gt;&lt;font style=&quot;font-size: 13px;&quot; face=&quot;ImCB2FSHXsTO1dE28jeQ&quot;&gt;&lt;span style=&quot;font-style: italic;&quot;&gt;+&amp;nbsp;&lt;/span&gt;ChangeDownloadOnlyWifi(value)：&lt;span style=&quot;font-style: italic;&quot;&gt;修改&lt;/span&gt;&lt;span style=&quot;font-style: italic;&quot;&gt;onlywifi&lt;/span&gt;&lt;span style=&quot;font-style: italic;&quot;&gt;字段&lt;/span&gt;&lt;/font&gt;&lt;/p&gt;&lt;p style=&quot;margin: 0px 0px 0px 4px; font-size: 13px;&quot;&gt;&lt;font style=&quot;font-size: 13px;&quot; face=&quot;ImCB2FSHXsTO1dE28jeQ&quot;&gt;&lt;span style=&quot;font-style: italic;&quot;&gt;+&amp;nbsp;&lt;/span&gt;IsWifi()：&lt;span style=&quot;font-style: italic;&quot;&gt;检测是否为&lt;/span&gt;&lt;span style=&quot;font-style: italic;&quot;&gt;wifi&lt;/span&gt;&lt;span style=&quot;font-style: italic;&quot;&gt;环境&lt;/span&gt;&lt;/font&gt;&lt;/p&gt;&lt;p style=&quot;margin: 0px 0px 0px 4px; font-size: 13px;&quot;&gt;&lt;font style=&quot;font-size: 13px;&quot; face=&quot;ImCB2FSHXsTO1dE28jeQ&quot;&gt;&lt;span style=&quot;font-style: italic;&quot;&gt;+&amp;nbsp;&lt;/span&gt;IsEditor(bUseForceDownload)&lt;/font&gt;&lt;/p&gt;&lt;p style=&quot;margin: 0px 0px 0px 4px; font-size: 13px;&quot;&gt;&lt;font style=&quot;font-size: 13px;&quot; face=&quot;ImCB2FSHXsTO1dE28jeQ&quot;&gt;+&amp;nbsp;GetPufferKeyByGroupId(groupId)：&lt;span style=&quot;font-style: italic;&quot;&gt;通过&lt;/span&gt;&lt;span style=&quot;font-style: italic;&quot;&gt;groupId&lt;/span&gt;&lt;span style=&quot;font-style: italic;&quot;&gt;获取到对应&lt;/span&gt;&lt;span style=&quot;font-style: italic;&quot;&gt;featureName&lt;/span&gt;&lt;/font&gt;&lt;/p&gt;&lt;p style=&quot;margin: 0px 0px 0px 4px; font-size: 13px;&quot;&gt;&lt;font style=&quot;font-size: 13px;&quot; face=&quot;ImCB2FSHXsTO1dE28jeQ&quot;&gt;&lt;span style=&quot;font-style: italic;&quot;&gt;+&amp;nbsp;&lt;/span&gt;CheckPufferIsReadyByGroupId(pakMgr, groupId, failReset)：&lt;span style=&quot;font-style: italic;&quot;&gt;通过&lt;/span&gt;&lt;span style=&quot;font-style: italic;&quot;&gt;groupId&lt;/span&gt;&lt;span style=&quot;font-style: italic;&quot;&gt;获取到对应&lt;/span&gt;&lt;span style=&quot;font-style: italic;&quot;&gt;featureName&lt;/span&gt;&lt;span style=&quot;font-style: italic;&quot;&gt;再通过&lt;/span&gt;&lt;span style=&quot;font-style: italic;&quot;&gt;featureName&lt;/span&gt;&lt;span style=&quot;font-style: italic;&quot;&gt;获取到对应&lt;/span&gt;&lt;span style=&quot;font-style: italic;&quot;&gt;puffer&lt;/span&gt;&lt;span style=&quot;font-style: italic;&quot;&gt;是否初始化完成&lt;/span&gt;&lt;/font&gt;&lt;/p&gt;&lt;p style=&quot;margin: 0px 0px 0px 4px; font-size: 13px;&quot;&gt;&lt;font style=&quot;font-size: 13px;&quot; face=&quot;ImCB2FSHXsTO1dE28jeQ&quot;&gt;&lt;span style=&quot;font-style: italic;&quot;&gt;+&amp;nbsp;&lt;/span&gt;IsPufferInitialingByGroupId(pufferMgr, groupId)：&lt;span style=&quot;font-style: italic;&quot;&gt;通过&lt;/span&gt;&lt;span style=&quot;font-style: italic;&quot;&gt;groupId&lt;/span&gt;&lt;span style=&quot;font-style: italic;&quot;&gt;获取到对应&lt;/span&gt;&lt;span style=&quot;font-style: italic;&quot;&gt;featureName&lt;/span&gt;&lt;span style=&quot;font-style: italic;&quot;&gt;再通过&lt;/span&gt;&lt;span style=&quot;font-style: italic;&quot;&gt;featureName&lt;/span&gt;&lt;span style=&quot;font-style: italic;&quot;&gt;获取到对应&lt;/span&gt;&lt;span style=&quot;font-style: italic;&quot;&gt;puffer&lt;/span&gt;&lt;span style=&quot;font-style: italic;&quot;&gt;是否初始化完成&lt;/span&gt;&lt;/font&gt;&lt;/p&gt;&lt;p style=&quot;margin: 0px 0px 0px 4px; font-size: 13px;&quot;&gt;&lt;font style=&quot;font-size: 13px;&quot; face=&quot;ImCB2FSHXsTO1dE28jeQ&quot;&gt;&lt;span style=&quot;font-style: italic;&quot;&gt;+&amp;nbsp;&lt;/span&gt;CheckPufferIsInitialingByGroupId(pakMgr, groupId)：&lt;span style=&quot;font-style: italic;&quot;&gt;通过&lt;/span&gt;&lt;span style=&quot;font-style: italic;&quot;&gt;groupId&lt;/span&gt;&lt;span style=&quot;font-style: italic;&quot;&gt;判断&lt;/span&gt;&lt;span style=&quot;font-style: italic;&quot;&gt;puffer&lt;/span&gt;&lt;span style=&quot;font-style: italic;&quot;&gt;是否正在初始化&lt;/span&gt;&lt;/font&gt;&lt;/p&gt;&lt;p style=&quot;margin: 0px 0px 0px 4px; font-size: 13px;&quot;&gt;&lt;font style=&quot;font-size: 13px;&quot; face=&quot;ImCB2FSHXsTO1dE28jeQ&quot;&gt;&lt;span style=&quot;font-style: italic;&quot;&gt;+&amp;nbsp;&lt;/span&gt;CheckPufferIsReadyByPakName(pakMgr, pakName, failReset)&lt;/font&gt;&lt;/p&gt;&lt;p style=&quot;margin: 0px 0px 0px 4px; font-size: 13px;&quot;&gt;&lt;font style=&quot;font-size: 13px;&quot; face=&quot;ImCB2FSHXsTO1dE28jeQ&quot;&gt;+&amp;nbsp;CheckIsInAPP(groupId)&lt;/font&gt;&lt;/p&gt;&lt;p style=&quot;margin: 0px 0px 0px 4px; font-size: 13px;&quot;&gt;&lt;font style=&quot;font-size: 13px;&quot; face=&quot;ImCB2FSHXsTO1dE28jeQ&quot;&gt;+&amp;nbsp;GetDefaultDownloadInfo(groupId)&lt;/font&gt;&lt;/p&gt;&lt;p style=&quot;margin: 0px 0px 0px 4px; font-size: 13px;&quot;&gt;&lt;font style=&quot;font-size: 13px;&quot; face=&quot;ImCB2FSHXsTO1dE28jeQ&quot;&gt;+&amp;nbsp;GetDownloadPriority(taskLevel)&lt;/font&gt;&lt;/p&gt;&lt;p style=&quot;margin: 0px 0px 0px 4px; font-size: 13px;&quot;&gt;&lt;font style=&quot;font-size: 13px;&quot; face=&quot;ImCB2FSHXsTO1dE28jeQ&quot;&gt;+&amp;nbsp;GetRecaculatePriority(oldPriority, newTaskLevel)&lt;/font&gt;&lt;/p&gt;&lt;p style=&quot;margin: 0px 0px 0px 4px; font-size: 13px;&quot;&gt;&lt;font style=&quot;font-size: 13px;&quot; face=&quot;ImCB2FSHXsTO1dE28jeQ&quot;&gt;+&amp;nbsp;GetDownloadPriorityByOrder(priority, newTaskLevel)&lt;/font&gt;&lt;/p&gt;&lt;p style=&quot;margin: 0px 0px 0px 4px; font-size: 13px;&quot;&gt;&lt;font style=&quot;font-size: 13px;&quot; face=&quot;ImCB2FSHXsTO1dE28jeQ&quot;&gt;+&amp;nbsp;GetDownloadOldTaskLevel(oldPriority)&lt;/font&gt;&lt;/p&gt;&lt;p style=&quot;margin: 0px 0px 0px 4px; font-size: 13px;&quot;&gt;&lt;font style=&quot;font-size: 13px;&quot; face=&quot;ImCB2FSHXsTO1dE28jeQ&quot;&gt;+&amp;nbsp;UpdateCacheJson(basePath, key, val)&lt;/font&gt;&lt;/p&gt;&lt;p style=&quot;margin: 0px 0px 0px 4px; font-size: 13px;&quot;&gt;&lt;font style=&quot;font-size: 13px;&quot; face=&quot;ImCB2FSHXsTO1dE28jeQ&quot;&gt;+&amp;nbsp;SaveCacheJson(basePath, table)&lt;/font&gt;&lt;/p&gt;&lt;p style=&quot;margin: 0px 0px 0px 4px; font-size: 13px;&quot;&gt;&lt;font style=&quot;font-size: 13px;&quot; face=&quot;ImCB2FSHXsTO1dE28jeQ&quot;&gt;+&amp;nbsp;GetCacheJson(basePath)&lt;/font&gt;&lt;/p&gt;&lt;p style=&quot;margin: 0px 0px 0px 4px; font-size: 13px;&quot;&gt;&lt;font style=&quot;font-size: 13px;&quot; face=&quot;ImCB2FSHXsTO1dE28jeQ&quot;&gt;+&amp;nbsp;GetChunkGroupConfigState(basePath, groupId)：&lt;span style=&quot;font-style: italic;&quot;&gt;获取本地缓存信息&lt;/span&gt;&lt;/font&gt;&lt;/p&gt;&lt;p style=&quot;margin: 0px 0px 0px 4px; font-size: 13px;&quot;&gt;&lt;font style=&quot;font-size: 13px;&quot; face=&quot;ImCB2FSHXsTO1dE28jeQ&quot;&gt;&lt;span style=&quot;font-style: italic;&quot;&gt;+&amp;nbsp;&lt;/span&gt;CheckChunkPuffersIsBusy()&lt;/font&gt;&lt;/p&gt;&lt;p style=&quot;margin: 0px 0px 0px 4px; font-size: 13px;&quot;&gt;&lt;font style=&quot;font-size: 13px;&quot; face=&quot;ImCB2FSHXsTO1dE28jeQ&quot;&gt;+&amp;nbsp;IsForceOpenPufferDownload()：&lt;span style=&quot;font-style: italic;&quot;&gt;静默资源包下载完毕&lt;/span&gt;&lt;/font&gt;&lt;/p&gt;&lt;p style=&quot;margin: 0px 0px 0px 4px; font-size: 13px;&quot;&gt;&lt;font style=&quot;font-size: 13px;&quot; face=&quot;ImCB2FSHXsTO1dE28jeQ&quot;&gt;+&amp;nbsp;ForceAutoGroupDownloadDone()&lt;/font&gt;&lt;/p&gt;&lt;p style=&quot;margin: 0px 0px 0px 4px; font-size: 13px;&quot;&gt;&lt;font style=&quot;font-size: 13px;&quot; face=&quot;ImCB2FSHXsTO1dE28jeQ&quot;&gt;+ ......&lt;/font&gt;&lt;/p&gt;" style="verticalAlign=top;align=left;overflow=fill;html=1;whiteSpace=wrap;" parent="1" vertex="1">
          <mxGeometry x="870" y="195" width="680" height="650" as="geometry" />
        </mxCell>
        <mxCell id="Y6v7ilCjQGHOnKSHEXt1-31" value="&lt;pre style=&quot;text-align: center;&quot;&gt;&lt;font style=&quot;font-size: 13px;&quot; face=&quot;Helvetica&quot;&gt;&lt;b&gt;EMoeChunkGroupDownloadTaskPriorityLevel：Enum&lt;/b&gt;&lt;/font&gt;&lt;/pre&gt;&lt;pre style=&quot;text-align: center; line-height: 9.6px;&quot;&gt;&lt;font style=&quot;font-size: 13px;&quot; face=&quot;Helvetica&quot;&gt;&lt;b&gt;下载优先级&lt;/b&gt;&lt;/font&gt;&lt;/pre&gt;&lt;hr size=&quot;1&quot; style=&quot;border-style:solid;&quot;&gt;&lt;blockquote style=&quot;margin: 0 0 0 40px; border: none; padding: 0px;&quot;&gt;&lt;div style=&quot;font-size: 13px; line-height: 80%;&quot;&gt;&lt;pre style=&quot;line-height: 80%;&quot;&gt;&lt;font style=&quot;font-size: 13px; background-color: rgb(255, 255, 255);&quot; face=&quot;Helvetica&quot;&gt;Avatar_Shop = 1&lt;/font&gt;&lt;/pre&gt;&lt;/div&gt;&lt;div style=&quot;font-size: 13px; line-height: 80%;&quot;&gt;&lt;pre style=&quot;line-height: 80%;&quot;&gt;&lt;pre style=&quot;line-height: 80%;&quot;&gt;&lt;font style=&quot;font-size: 13px; background-color: rgb(255, 255, 255);&quot; face=&quot;cmhQicWZsKfiRdKMIkgb&quot;&gt;Avatar_Local = 2&lt;/font&gt;&lt;/pre&gt;&lt;/pre&gt;&lt;/div&gt;&lt;div style=&quot;font-size: 13px; line-height: 80%;&quot;&gt;&lt;pre style=&quot;line-height: 80%;&quot;&gt;&lt;pre style=&quot;line-height: 80%;&quot;&gt;&lt;pre style=&quot;line-height: 80%;&quot;&gt;&lt;font style=&quot;font-size: 13px; background-color: rgb(255, 255, 255);&quot; face=&quot;cmhQicWZsKfiRdKMIkgb&quot;&gt;Team = 3&lt;/font&gt;&lt;/pre&gt;&lt;/pre&gt;&lt;/pre&gt;&lt;/div&gt;&lt;div style=&quot;font-size: 13px; line-height: 80%;&quot;&gt;&lt;pre style=&quot;line-height: 80%;&quot;&gt;&lt;pre style=&quot;line-height: 80%;&quot;&gt;&lt;div style=&quot;line-height: 80%;&quot;&gt;&lt;pre style=&quot;line-height: 80%;&quot;&gt;&lt;font style=&quot;font-size: 13px; background-color: rgb(255, 255, 255);&quot; face=&quot;cmhQicWZsKfiRdKMIkgb&quot;&gt;Normal = 4&lt;/font&gt;&lt;/pre&gt;&lt;/div&gt;&lt;/pre&gt;&lt;/pre&gt;&lt;/div&gt;&lt;div style=&quot;font-size: 13px; line-height: 80%;&quot;&gt;&lt;pre style=&quot;line-height: 80%;&quot;&gt;&lt;pre style=&quot;line-height: 80%;&quot;&gt;&lt;pre style=&quot;line-height: 80%;&quot;&gt;&lt;div style=&quot;line-height: 80%;&quot;&gt;&lt;pre style=&quot;line-height: 80%;&quot;&gt;&lt;font style=&quot;font-size: 13px; background-color: rgb(255, 255, 255);&quot; face=&quot;cmhQicWZsKfiRdKMIkgb&quot;&gt;Avatar_Other = 5&lt;/font&gt;&lt;/pre&gt;&lt;/div&gt;&lt;/pre&gt;&lt;/pre&gt;&lt;/pre&gt;&lt;/div&gt;&lt;div style=&quot;font-size: 13px; line-height: 80%;&quot;&gt;&lt;pre style=&quot;line-height: 80%;&quot;&gt;&lt;pre style=&quot;line-height: 80%;&quot;&gt;&lt;pre style=&quot;line-height: 80%;&quot;&gt;&lt;div style=&quot;line-height: 80%;&quot;&gt;&lt;pre style=&quot;line-height: 80%;&quot;&gt;&lt;div style=&quot;line-height: 80%;&quot;&gt;&lt;pre style=&quot;line-height: 80%;&quot;&gt;&lt;font style=&quot;font-size: 13px; background-color: rgb(255, 255, 255);&quot; face=&quot;cmhQicWZsKfiRdKMIkgb&quot;&gt;Auto = 6&lt;/font&gt;&lt;/pre&gt;&lt;/div&gt;&lt;/pre&gt;&lt;/div&gt;&lt;/pre&gt;&lt;/pre&gt;&lt;/pre&gt;&lt;/div&gt;&lt;/blockquote&gt;" style="verticalAlign=top;align=left;overflow=fill;html=1;whiteSpace=wrap;" parent="1" vertex="1">
          <mxGeometry x="-1407.5" y="-130" width="405" height="220" as="geometry" />
        </mxCell>
        <mxCell id="Y6v7ilCjQGHOnKSHEXt1-32" value="&lt;pre style=&quot;font-size: 13px; text-align: center;&quot;&gt;&lt;font style=&quot;background-color: rgb(255, 255, 255);&quot; face=&quot;Helvetica&quot;&gt;&lt;b&gt;MoeChunkCommonDefine&lt;/b&gt;&lt;/font&gt;&lt;/pre&gt;&lt;hr size=&quot;1&quot; style=&quot;border-style:solid;&quot;&gt;&lt;blockquote style=&quot;margin: 0 0 0 40px; border: none; padding: 0px;&quot;&gt;&lt;pre style=&quot;font-size: 13px;&quot;&gt;&lt;font style=&quot;background-color: rgb(255, 255, 255);&quot; face=&quot;qCAUmsZiCWYdj_HpAseh&quot;&gt;MoeChunkCommonDefine&lt;/font&gt;&lt;/pre&gt;&lt;pre style=&quot;font-size: 13px;&quot;&gt;&lt;pre&gt;&lt;font style=&quot;background-color: rgb(255, 255, 255);&quot; face=&quot;qCAUmsZiCWYdj_HpAseh&quot;&gt;EMoePakLoaderType：pak的类型，比如是不是静态包、在底包中等&lt;/font&gt;&lt;/pre&gt;&lt;/pre&gt;&lt;pre style=&quot;font-size: 13px;&quot;&gt;&lt;pre&gt;&lt;pre&gt;&lt;font style=&quot;background-color: rgb(255, 255, 255);&quot; face=&quot;qCAUmsZiCWYdj_HpAseh&quot;&gt;EMoePakLoaderState：load状态&lt;/font&gt;&lt;/pre&gt;&lt;/pre&gt;&lt;/pre&gt;&lt;pre style=&quot;font-size: 13px;&quot;&gt;&lt;pre&gt;&lt;pre&gt;&lt;pre&gt;&lt;font style=&quot;background-color: rgb(255, 255, 255);&quot; face=&quot;qCAUmsZiCWYdj_HpAseh&quot;&gt;DownloadState：下载状态&lt;/font&gt;&lt;/pre&gt;&lt;/pre&gt;&lt;/pre&gt;&lt;/pre&gt;&lt;pre style=&quot;font-size: 13px;&quot;&gt;&lt;pre&gt;&lt;pre&gt;&lt;pre&gt;&lt;pre&gt;&lt;font style=&quot;background-color: rgb(255, 255, 255);&quot; face=&quot;qCAUmsZiCWYdj_HpAseh&quot;&gt;GroupState：包组的下载状态&lt;/font&gt;&lt;/pre&gt;&lt;/pre&gt;&lt;/pre&gt;&lt;/pre&gt;&lt;/pre&gt;&lt;pre style=&quot;font-size: 13px;&quot;&gt;&lt;pre&gt;&lt;pre&gt;&lt;pre&gt;&lt;pre&gt;&lt;pre&gt;&lt;font style=&quot;background-color: rgb(255, 255, 255);&quot; face=&quot;qCAUmsZiCWYdj_HpAseh&quot;&gt;RewardState：下载完包组后的奖励领取状态，为啥要有上报中状态？&lt;/font&gt;&lt;/pre&gt;&lt;/pre&gt;&lt;/pre&gt;&lt;/pre&gt;&lt;/pre&gt;&lt;/pre&gt;&lt;pre style=&quot;font-size: 13px;&quot;&gt;&lt;pre&gt;&lt;pre&gt;&lt;pre&gt;&lt;pre&gt;&lt;pre&gt;&lt;pre&gt;&lt;font style=&quot;background-color: rgb(255, 255, 255);&quot; face=&quot;qCAUmsZiCWYdj_HpAseh&quot;&gt;ChunkGroupInfo：包组信息&lt;/font&gt;&lt;/pre&gt;&lt;/pre&gt;&lt;/pre&gt;&lt;/pre&gt;&lt;/pre&gt;&lt;/pre&gt;&lt;/pre&gt;&lt;pre style=&quot;font-size: 13px;&quot;&gt;&lt;pre&gt;&lt;pre&gt;&lt;pre&gt;&lt;pre&gt;&lt;pre&gt;&lt;pre&gt;&lt;pre&gt;&lt;font style=&quot;background-color: rgb(255, 255, 255);&quot; face=&quot;qCAUmsZiCWYdj_HpAseh&quot;&gt;GroupDownloadInfo：包组下载相关信息&lt;/font&gt;&lt;/pre&gt;&lt;/pre&gt;&lt;/pre&gt;&lt;/pre&gt;&lt;/pre&gt;&lt;/pre&gt;&lt;/pre&gt;&lt;/pre&gt;&lt;pre style=&quot;font-size: 13px;&quot;&gt;&lt;pre&gt;&lt;pre&gt;&lt;pre&gt;&lt;pre&gt;&lt;pre&gt;&lt;pre&gt;&lt;pre&gt;&lt;pre&gt;&lt;font style=&quot;background-color: rgb(255, 255, 255);&quot; face=&quot;qCAUmsZiCWYdj_HpAseh&quot;&gt;TaskLevel：下载任务优先级&lt;/font&gt;&lt;/pre&gt;&lt;/pre&gt;&lt;/pre&gt;&lt;/pre&gt;&lt;/pre&gt;&lt;/pre&gt;&lt;/pre&gt;&lt;/pre&gt;&lt;/pre&gt;&lt;pre style=&quot;font-size: 13px;&quot;&gt;&lt;pre&gt;&lt;pre&gt;&lt;pre&gt;&lt;pre&gt;&lt;pre&gt;&lt;pre&gt;&lt;pre&gt;&lt;pre&gt;&lt;pre&gt;&lt;font style=&quot;background-color: rgb(255, 255, 255);&quot; face=&quot;qCAUmsZiCWYdj_HpAseh&quot;&gt;TaskPool：下载任务池，不同优先级的任务的最高并发数，可以比最大并发数大（去两者中较小值执行）&lt;/font&gt;&lt;/pre&gt;&lt;/pre&gt;&lt;/pre&gt;&lt;/pre&gt;&lt;/pre&gt;&lt;/pre&gt;&lt;/pre&gt;&lt;/pre&gt;&lt;/pre&gt;&lt;/pre&gt;&lt;pre style=&quot;font-size: 13px;&quot;&gt;&lt;pre&gt;&lt;pre&gt;&lt;pre&gt;&lt;pre&gt;&lt;pre&gt;&lt;pre&gt;&lt;pre&gt;&lt;pre&gt;&lt;pre&gt;&lt;pre&gt;&lt;font style=&quot;background-color: rgb(255, 255, 255);&quot; face=&quot;qCAUmsZiCWYdj_HpAseh&quot;&gt;StorageCategory：存储种类，包组、星世界地图还是缓存&lt;/font&gt;&lt;/pre&gt;&lt;/pre&gt;&lt;/pre&gt;&lt;/pre&gt;&lt;/pre&gt;&lt;/pre&gt;&lt;/pre&gt;&lt;/pre&gt;&lt;/pre&gt;&lt;/pre&gt;&lt;/pre&gt;&lt;pre style=&quot;font-size: 13px;&quot;&gt;&lt;pre&gt;&lt;pre&gt;&lt;pre&gt;&lt;pre&gt;&lt;pre&gt;&lt;pre&gt;&lt;pre&gt;&lt;pre&gt;&lt;pre&gt;&lt;pre&gt;&lt;pre&gt;&lt;font style=&quot;background-color: rgb(255, 255, 255);&quot; face=&quot;qCAUmsZiCWYdj_HpAseh&quot;&gt;PathDataCategory：路径种类，文件路径、pak路径&lt;/font&gt;&lt;/pre&gt;&lt;/pre&gt;&lt;/pre&gt;&lt;/pre&gt;&lt;/pre&gt;&lt;/pre&gt;&lt;/pre&gt;&lt;/pre&gt;&lt;/pre&gt;&lt;/pre&gt;&lt;/pre&gt;&lt;/pre&gt;&lt;pre style=&quot;font-size: 13px;&quot;&gt;&lt;pre&gt;&lt;pre&gt;&lt;pre&gt;&lt;pre&gt;&lt;pre&gt;&lt;pre&gt;&lt;pre&gt;&lt;pre&gt;&lt;pre&gt;&lt;pre&gt;&lt;pre&gt;&lt;pre&gt;&lt;font style=&quot;background-color: rgb(255, 255, 255);&quot; face=&quot;qCAUmsZiCWYdj_HpAseh&quot;&gt;CheckFreeWorkSpaceFrequencyTime：时间戳间隔，下载相应大小的文件需要多长时间&lt;/font&gt;&lt;/pre&gt;&lt;/pre&gt;&lt;/pre&gt;&lt;/pre&gt;&lt;/pre&gt;&lt;/pre&gt;&lt;/pre&gt;&lt;/pre&gt;&lt;/pre&gt;&lt;/pre&gt;&lt;/pre&gt;&lt;/pre&gt;&lt;/pre&gt;&lt;pre style=&quot;font-size: 13px;&quot;&gt;&lt;pre&gt;&lt;pre&gt;&lt;pre&gt;&lt;pre&gt;&lt;pre&gt;&lt;pre&gt;&lt;pre&gt;&lt;pre&gt;&lt;pre&gt;&lt;pre&gt;&lt;pre&gt;&lt;pre&gt;&lt;pre&gt;&lt;font style=&quot;background-color: rgb(255, 255, 255);&quot; face=&quot;qCAUmsZiCWYdj_HpAseh&quot;&gt;CheckFreeWorkSpaceDivideSize：下载的文件大小区间&lt;/font&gt;&lt;/pre&gt;&lt;/pre&gt;&lt;/pre&gt;&lt;/pre&gt;&lt;/pre&gt;&lt;/pre&gt;&lt;/pre&gt;&lt;/pre&gt;&lt;/pre&gt;&lt;/pre&gt;&lt;/pre&gt;&lt;/pre&gt;&lt;/pre&gt;&lt;/pre&gt;&lt;/blockquote&gt;" style="verticalAlign=top;align=left;overflow=fill;html=1;whiteSpace=wrap;" parent="1" vertex="1">
          <mxGeometry x="-2160" y="-330" width="710" height="490" as="geometry" />
        </mxCell>
        <mxCell id="Y6v7ilCjQGHOnKSHEXt1-33" value="&lt;div style=&quot;text-align: center; line-height: 19px; white-space: pre; font-size: 13px;&quot;&gt;&lt;font style=&quot;font-size: 13px;&quot; face=&quot;Helvetica&quot;&gt;&lt;b&gt;MoePufferCommonUtils&lt;/b&gt;&lt;/font&gt;&lt;/div&gt;&lt;div style=&quot;text-align: center; line-height: 19px; white-space: pre; font-size: 13px;&quot;&gt;&lt;font style=&quot;font-size: 13px;&quot; face=&quot;Helvetica&quot;&gt;&lt;b&gt;puffer使用的关于下载、缓存、任务回调相关的适配器&lt;/b&gt;&lt;/font&gt;&lt;/div&gt;&lt;hr size=&quot;1&quot; style=&quot;border-style: solid; font-size: 13px;&quot;&gt;&lt;p style=&quot;margin: 0px 0px 0px 4px; font-size: 13px;&quot;&gt;&lt;font style=&quot;font-size: 13px;&quot; face=&quot;slPh7RONRCmrdLSgt80P&quot;&gt;+&amp;nbsp;&lt;font style=&quot;font-size: 13px;&quot;&gt;&lt;span style=&quot;white-space: pre;&quot;&gt;EventCallBackMap&lt;/span&gt;：function puffer回调事件&lt;/font&gt;&lt;/font&gt;&lt;/p&gt;&lt;p style=&quot;margin: 0px 0px 0px 4px; font-size: 13px;&quot;&gt;&lt;font style=&quot;font-size: 13px;&quot; face=&quot;slPh7RONRCmrdLSgt80P&quot;&gt;+ field2：类型&lt;/font&gt;&lt;/p&gt;&lt;hr size=&quot;1&quot; style=&quot;border-style: solid; font-size: 13px;&quot;&gt;&lt;p style=&quot;margin: 0px 0px 0px 4px; font-size: 13px;&quot;&gt;&lt;font style=&quot;font-size: 13px;&quot; face=&quot;slPh7RONRCmrdLSgt80P&quot;&gt;+&amp;nbsp;&lt;font style=&quot;font-size: 13px;&quot;&gt;&lt;span style=&quot;white-space: pre;&quot;&gt;FetchDownloadDefaultOrder&lt;/span&gt;（int）：获取当前任务的优先级，默认为上一个+1&lt;/font&gt;&lt;/font&gt;&lt;/p&gt;&lt;p style=&quot;margin: 0px 0px 0px 4px; font-size: 13px;&quot;&gt;&lt;font style=&quot;font-size: 13px;&quot; face=&quot;slPh7RONRCmrdLSgt80P&quot;&gt;+&amp;nbsp;&lt;font style=&quot;font-size: 13px;&quot;&gt;&lt;span style=&quot;white-space: pre;&quot;&gt;RemoveExtraFiles&lt;/span&gt;（Type， Type）：删除多余pak&lt;/font&gt;&lt;/font&gt;&lt;/p&gt;&lt;p style=&quot;margin: 0px 0px 0px 4px; font-size: 13px;&quot;&gt;&lt;font style=&quot;font-size: 13px;&quot; face=&quot;slPh7RONRCmrdLSgt80P&quot;&gt;&lt;font style=&quot;font-size: 13px;&quot;&gt;+&amp;nbsp;&lt;/font&gt;&lt;span style=&quot;white-space: pre;&quot;&gt;GetPakPlatformName ：获取平台后缀&lt;/span&gt;&lt;/font&gt;&lt;/p&gt;&lt;p style=&quot;margin: 0px 0px 0px 4px; font-size: 13px;&quot;&gt;&lt;font style=&quot;font-size: 13px;&quot; face=&quot;slPh7RONRCmrdLSgt80P&quot;&gt;&lt;span style=&quot;white-space: pre;&quot;&gt;+ &lt;/span&gt;&lt;span style=&quot;white-space: pre;&quot;&gt;GetMaxTaskLimit ： 获取最大任务数量&lt;/span&gt;&lt;/font&gt;&lt;/p&gt;&lt;p style=&quot;margin: 0px 0px 0px 4px; font-size: 13px;&quot;&gt;&lt;font style=&quot;font-size: 13px;&quot; face=&quot;slPh7RONRCmrdLSgt80P&quot;&gt;&lt;span style=&quot;white-space: pre;&quot;&gt;+ &lt;/span&gt;&lt;font style=&quot;font-size: 13px;&quot;&gt;&lt;span style=&quot;white-space: pre;&quot;&gt;CheckFileIsReady（bool）&lt;/span&gt;&lt;span style=&quot;white-space: pre;&quot;&gt;：文件是否准备好，本地与puffer一致&lt;/span&gt;&lt;/font&gt;&lt;/font&gt;&lt;/p&gt;&lt;p style=&quot;margin: 0px 0px 0px 4px; font-size: 13px;&quot;&gt;&lt;font style=&quot;font-size: 13px;&quot; face=&quot;slPh7RONRCmrdLSgt80P&quot;&gt;&lt;font style=&quot;font-size: 13px;&quot;&gt;&lt;span style=&quot;white-space: pre;&quot;&gt;+ &lt;/span&gt;&lt;/font&gt;&lt;span style=&quot;white-space: pre;&quot;&gt;LoadMd5CacheInfo ： 加载本地MD5缓存&lt;/span&gt;&lt;/font&gt;&lt;/p&gt;&lt;p style=&quot;margin: 0px 0px 0px 4px; font-size: 13px;&quot;&gt;&lt;font style=&quot;font-size: 13px;&quot; face=&quot;slPh7RONRCmrdLSgt80P&quot;&gt;&lt;span style=&quot;white-space: pre;&quot;&gt;+ &lt;/span&gt;&lt;span style=&quot;white-space: pre;&quot;&gt;SaveMD5CacheFileInfos ： 下载完后更新一些本地md5缓存信息&lt;/span&gt;&lt;/font&gt;&lt;/p&gt;&lt;p style=&quot;margin: 0px 0px 0px 4px; font-size: 13px;&quot;&gt;&lt;font style=&quot;font-size: 13px;&quot; face=&quot;slPh7RONRCmrdLSgt80P&quot;&gt;&lt;span style=&quot;white-space: pre;&quot;&gt;+ &lt;/span&gt;&lt;font style=&quot;font-size: 13px;&quot;&gt;&lt;span style=&quot;white-space: pre;&quot;&gt;SaveMD5CacheInfo ： &lt;/span&gt;&lt;span style=&quot;white-space: pre;&quot;&gt;下载完后更新单个本地md5缓存信息&lt;/span&gt;&lt;/font&gt;&lt;/font&gt;&lt;/p&gt;&lt;p style=&quot;margin: 0px 0px 0px 4px; font-size: 13px;&quot;&gt;&lt;font style=&quot;font-size: 13px;&quot; face=&quot;slPh7RONRCmrdLSgt80P&quot;&gt;&lt;span style=&quot;white-space: pre;&quot;&gt;+ &lt;/span&gt;&lt;font style=&quot;font-size: 13px;&quot;&gt;&lt;span style=&quot;white-space: pre;&quot;&gt;SaveMD5CacheInfoByMd5 ： &lt;/span&gt;&lt;span style=&quot;white-space: pre;&quot;&gt;下载完后更新单个本地md5缓存信息&lt;/span&gt;&lt;/font&gt;&lt;/font&gt;&lt;/p&gt;&lt;p style=&quot;margin: 0px 0px 0px 4px; font-size: 13px;&quot;&gt;&lt;font style=&quot;font-size: 13px;&quot; face=&quot;slPh7RONRCmrdLSgt80P&quot;&gt;&lt;span style=&quot;white-space: pre;&quot;&gt;+ &lt;/span&gt;&lt;font style=&quot;font-size: 13px;&quot;&gt;&lt;span style=&quot;white-space: pre;&quot;&gt;RemoveMD5CacheInfo ： &lt;/span&gt;&lt;span style=&quot;white-space: pre;&quot;&gt;清除指定文件的缓存信息&lt;/span&gt;&lt;/font&gt;&lt;/font&gt;&lt;/p&gt;&lt;p style=&quot;margin: 0px 0px 0px 4px; font-size: 13px;&quot;&gt;&lt;font style=&quot;font-size: 13px;&quot; face=&quot;slPh7RONRCmrdLSgt80P&quot;&gt;&lt;span style=&quot;white-space: pre;&quot;&gt;+ &lt;/span&gt;&lt;font style=&quot;font-size: 13px;&quot;&gt;&lt;span style=&quot;white-space: pre;&quot;&gt;GetMD5CacheInfo ： &lt;/span&gt;&lt;span style=&quot;white-space: pre;&quot;&gt;获取本地缓存md5信息&lt;/span&gt;&lt;/font&gt;&lt;/font&gt;&lt;/p&gt;&lt;p style=&quot;margin: 0px 0px 0px 4px; font-size: 13px;&quot;&gt;&lt;font style=&quot;font-size: 13px;&quot; face=&quot;slPh7RONRCmrdLSgt80P&quot;&gt;&lt;span style=&quot;white-space: pre;&quot;&gt;+ &lt;/span&gt;&lt;font style=&quot;font-size: 13px;&quot;&gt;&lt;span style=&quot;white-space: pre;&quot;&gt;GetSortedDownloadTasksInfo ： &lt;/span&gt;&lt;span style=&quot;white-space: pre;&quot;&gt;获取并排序下载任务的优先级&lt;/span&gt;&lt;/font&gt;&lt;/font&gt;&lt;/p&gt;&lt;p style=&quot;margin: 0px 0px 0px 4px; font-size: 13px;&quot;&gt;&lt;font style=&quot;font-size: 13px;&quot; face=&quot;slPh7RONRCmrdLSgt80P&quot;&gt;&lt;span style=&quot;white-space: pre;&quot;&gt;+ &lt;/span&gt;&lt;span style=&quot;white-space: pre;&quot;&gt;GetDownloadTaskMutexTagList&lt;/span&gt;&lt;/font&gt;&lt;/p&gt;&lt;p style=&quot;margin: 0px 0px 0px 4px; font-size: 13px;&quot;&gt;&lt;font style=&quot;font-size: 13px;&quot; face=&quot;slPh7RONRCmrdLSgt80P&quot;&gt;&lt;span style=&quot;white-space: pre;&quot;&gt;+ &lt;/span&gt;&lt;font style=&quot;font-size: 13px;&quot;&gt;&lt;span style=&quot;white-space: pre;&quot;&gt;GetAvailableDownloadTaskMutexTag ： &lt;/span&gt;&lt;span style=&quot;white-space: pre;&quot;&gt;查询是否有可用的mutexTag&lt;/span&gt;&lt;/font&gt;&lt;/font&gt;&lt;/p&gt;&lt;p style=&quot;margin: 0px 0px 0px 4px; font-size: 13px;&quot;&gt;&lt;font style=&quot;font-size: 13px;&quot; face=&quot;slPh7RONRCmrdLSgt80P&quot;&gt;&lt;span style=&quot;white-space: pre;&quot;&gt;+ &lt;/span&gt;&lt;span style=&quot;white-space: pre;&quot;&gt;ChangeMaxSpeedDownload&lt;/span&gt;&lt;/font&gt;&lt;/p&gt;&lt;p style=&quot;margin: 0px 0px 0px 4px; font-size: 13px;&quot;&gt;&lt;font style=&quot;font-size: 13px;&quot; face=&quot;slPh7RONRCmrdLSgt80P&quot;&gt;&lt;span style=&quot;white-space: pre;&quot;&gt;+ &lt;/span&gt;&lt;span style=&quot;white-space: pre;&quot;&gt;GetSourceChunkName&lt;/span&gt;&lt;/font&gt;&lt;/p&gt;&lt;p style=&quot;margin: 0px 0px 0px 4px; font-size: 13px;&quot;&gt;&lt;font style=&quot;font-size: 13px;&quot; face=&quot;slPh7RONRCmrdLSgt80P&quot;&gt;&lt;span style=&quot;white-space: pre;&quot;&gt;+ &lt;/span&gt;&lt;span style=&quot;white-space: pre;&quot;&gt;IsInContentBasePak&lt;/span&gt;&lt;/font&gt;&lt;/p&gt;&lt;p style=&quot;margin: 0px 0px 0px 4px; font-size: 13px;&quot;&gt;&lt;font style=&quot;font-size: 13px;&quot; face=&quot;slPh7RONRCmrdLSgt80P&quot;&gt;&lt;span style=&quot;white-space: pre;&quot;&gt;+ &lt;/span&gt;&lt;span style=&quot;white-space: pre;&quot;&gt;DeepCopy&lt;/span&gt;&lt;/font&gt;&lt;/p&gt;&lt;p style=&quot;margin: 0px 0px 0px 4px; font-size: 13px;&quot;&gt;&lt;span style=&quot;color: rgb(106, 153, 85); background-color: rgb(30, 30, 30); font-family: Consolas, &amp;quot;Courier New&amp;quot;, monospace; white-space: pre;&quot;&gt;&lt;br&gt;&lt;/span&gt;&lt;/p&gt;&lt;p style=&quot;margin:0px;margin-left:4px;&quot;&gt;&lt;span style=&quot;color: rgb(220, 220, 170); background-color: rgb(30, 30, 30); font-family: Consolas, &amp;quot;Courier New&amp;quot;, monospace; font-size: 14px; white-space: pre;&quot;&gt;&lt;br&gt;&lt;/span&gt;&lt;/p&gt;" style="verticalAlign=top;align=left;overflow=fill;html=1;whiteSpace=wrap;fillColor=#dae8fc;strokeColor=#6c8ebf;" parent="1" vertex="1">
          <mxGeometry x="260" y="1350" width="490" height="410" as="geometry" />
        </mxCell>
        <mxCell id="Y6v7ilCjQGHOnKSHEXt1-34" value="&lt;div style=&quot;text-align: center; line-height: 19px; white-space: pre; font-size: 13px;&quot;&gt;&lt;font style=&quot;font-size: 13px;&quot; face=&quot;Helvetica&quot;&gt;&lt;b&gt;MoePufferConst&lt;/b&gt;&lt;/font&gt;&lt;/div&gt;&lt;div style=&quot;text-align: center; line-height: 19px; white-space: pre; font-size: 13px;&quot;&gt;&lt;font style=&quot;font-size: 13px;&quot; face=&quot;Helvetica&quot;&gt;&lt;b&gt;puffer相关的枚举&lt;/b&gt;&lt;/font&gt;&lt;/div&gt;&lt;hr size=&quot;1&quot; style=&quot;border-style: solid; font-size: 13px;&quot;&gt;&lt;p style=&quot;margin: 0px 0px 0px 8px; font-size: 13px;&quot;&gt;&lt;font style=&quot;font-size: 13px;&quot; face=&quot;wG-ThMr0IQ7woWTU0qre&quot;&gt;&lt;span style=&quot;white-space: pre;&quot;&gt;+ E_PufferDownloadTaskState ： &lt;/span&gt;&lt;span style=&quot;white-space: pre;&quot;&gt;Puffer下载任务状态&lt;/span&gt;&lt;/font&gt;&lt;/p&gt;&lt;p style=&quot;margin: 0px 0px 0px 8px; font-size: 13px;&quot;&gt;&lt;font style=&quot;font-size: 13px;&quot; face=&quot;wG-ThMr0IQ7woWTU0qre&quot;&gt;&lt;font style=&quot;font-size: 13px;&quot;&gt;+&amp;nbsp;&lt;/font&gt;&lt;font style=&quot;font-size: 13px;&quot;&gt;&lt;span style=&quot;white-space: pre;&quot;&gt;E_PufferConnectState ： &lt;/span&gt;&lt;span style=&quot;white-space: pre;&quot;&gt;Puffer实例初始化状态&lt;/span&gt;&lt;/font&gt;&lt;/font&gt;&lt;/p&gt;&lt;p style=&quot;margin: 0px 0px 0px 8px; font-size: 13px;&quot;&gt;&lt;font style=&quot;font-size: 13px;&quot; face=&quot;wG-ThMr0IQ7woWTU0qre&quot;&gt;+&amp;nbsp;&lt;font style=&quot;font-size: 13px;&quot;&gt;&lt;span style=&quot;white-space: pre;&quot;&gt;E_PufferUsualState ： &lt;/span&gt;&lt;span style=&quot;white-space: pre;&quot;&gt;puffer的常态，初始化结束之后的状态&lt;/span&gt;&lt;/font&gt;&lt;/font&gt;&lt;/p&gt;&lt;p style=&quot;margin: 0px 0px 0px 8px; font-size: 13px;&quot;&gt;&lt;font style=&quot;font-size: 13px;&quot; face=&quot;wG-ThMr0IQ7woWTU0qre&quot;&gt;&lt;span style=&quot;white-space: pre;&quot;&gt;+ &lt;/span&gt;&lt;font style=&quot;font-size: 13px;&quot;&gt;&lt;span style=&quot;white-space: pre;&quot;&gt;E_PakMergeState ： &lt;/span&gt;&lt;span style=&quot;white-space: pre;&quot;&gt;&lt;font style=&quot;font-size: 13px;&quot;&gt;pak目前处于merge的哪一过程&lt;/font&gt;&lt;/span&gt;&lt;/font&gt;&lt;/font&gt;&lt;/p&gt;&lt;p style=&quot;margin: 0px 0px 0px 8px; font-size: 13px;&quot;&gt;&lt;font style=&quot;font-size: 13px;&quot; face=&quot;wG-ThMr0IQ7woWTU0qre&quot;&gt;&lt;span style=&quot;white-space: pre;&quot;&gt;+ &lt;/span&gt;&lt;span style=&quot;white-space: pre;&quot;&gt;E_PakLocalState ：pak的下载状态，未下载、部分下载、下载完成 &lt;/span&gt;&lt;/font&gt;&lt;/p&gt;&lt;p style=&quot;margin: 0px 0px 0px 8px; font-size: 13px;&quot;&gt;&lt;font style=&quot;font-size: 13px;&quot; face=&quot;wG-ThMr0IQ7woWTU0qre&quot;&gt;&lt;span style=&quot;white-space: pre;&quot;&gt;+ &lt;/span&gt;&lt;span style=&quot;white-space: pre;&quot;&gt;E_PakLoaderMergeState ：目前能不能进行merge或者下载&lt;/span&gt;&lt;/font&gt;&lt;/p&gt;&lt;p style=&quot;margin: 0px 0px 0px 8px; font-size: 13px;&quot;&gt;&lt;font style=&quot;font-size: 13px;&quot; face=&quot;wG-ThMr0IQ7woWTU0qre&quot;&gt;&lt;span style=&quot;white-space: pre;&quot;&gt;+ &lt;/span&gt;&lt;span style=&quot;white-space: pre;&quot;&gt;E_PufferEventKey ： puffer相关的事件的key&lt;/span&gt;&lt;/font&gt;&lt;/p&gt;&lt;p style=&quot;margin: 0px 0px 0px 8px; font-size: 13px;&quot;&gt;&lt;font style=&quot;font-size: 13px;&quot; face=&quot;wG-ThMr0IQ7woWTU0qre&quot;&gt;&lt;span style=&quot;white-space: pre;&quot;&gt;+ &lt;/span&gt;&lt;span style=&quot;white-space: pre;&quot;&gt;E_PakRefTagType&lt;/span&gt;&lt;/font&gt;&lt;/p&gt;&lt;p style=&quot;margin: 0px 0px 0px 8px; font-size: 13px;&quot;&gt;&lt;font style=&quot;font-size: 13px;&quot; face=&quot;wG-ThMr0IQ7woWTU0qre&quot;&gt;&lt;span style=&quot;white-space: pre;&quot;&gt;+ &lt;/span&gt;&lt;span style=&quot;white-space: pre;&quot;&gt;Struct_PakVO ： pak的信息&lt;/span&gt;&lt;/font&gt;&lt;/p&gt;&lt;p style=&quot;margin: 0px 0px 0px 8px; font-size: 13px;&quot;&gt;&lt;font style=&quot;font-size: 13px;&quot; face=&quot;wG-ThMr0IQ7woWTU0qre&quot;&gt;&lt;span style=&quot;white-space: pre;&quot;&gt;+ &lt;/span&gt;&lt;font style=&quot;font-size: 13px;&quot;&gt;&lt;span style=&quot;white-space: pre;&quot;&gt;Struct_PakVersion ： &lt;/span&gt;&lt;span style=&quot;white-space: pre;&quot;&gt;Pak版本信息&lt;/span&gt;&lt;/font&gt;&lt;/font&gt;&lt;/p&gt;" style="verticalAlign=top;align=left;overflow=fill;html=1;whiteSpace=wrap;fillColor=#dae8fc;strokeColor=#6c8ebf;" parent="1" vertex="1">
          <mxGeometry x="-310" y="1470" width="470" height="230" as="geometry" />
        </mxCell>
        <mxCell id="Y6v7ilCjQGHOnKSHEXt1-35" value="&lt;div style=&quot;text-align: center; line-height: 19px; white-space: pre; font-size: 13px;&quot;&gt;&lt;font style=&quot;font-size: 13px;&quot; face=&quot;Helvetica&quot;&gt;&lt;b&gt;MoeChunkGroupMountSchedule&lt;/b&gt;&lt;/font&gt;&lt;/div&gt;&lt;div style=&quot;text-align: center; line-height: 19px; white-space: pre; font-size: 13px;&quot;&gt;&lt;font style=&quot;font-size: 13px;&quot; face=&quot;Helvetica&quot;&gt;&lt;b&gt;统一进行包组的mount与unmount操作&lt;/b&gt;&lt;/font&gt;&lt;/div&gt;&lt;hr size=&quot;1&quot; style=&quot;border-style: solid; font-size: 13px;&quot;&gt;&lt;p style=&quot;margin: 0px 0px 0px 4px; font-size: 13px;&quot;&gt;&lt;font style=&quot;font-size: 13px;&quot; face=&quot;JODBLIUlCVhD2kTtNdMu&quot;&gt;+&amp;nbsp;&lt;font style=&quot;font-size: 13px;&quot;&gt;&lt;span style=&quot;white-space: pre;&quot;&gt;Owner&lt;/span&gt;：&lt;/font&gt;&lt;span style=&quot;white-space: pre;&quot;&gt;MoeChunkGroupManager&lt;/span&gt;&lt;/font&gt;&lt;/p&gt;&lt;p style=&quot;margin: 0px 0px 0px 4px; font-size: 13px;&quot;&gt;&lt;font style=&quot;font-size: 13px;&quot; face=&quot;JODBLIUlCVhD2kTtNdMu&quot;&gt;+&amp;nbsp;&lt;font style=&quot;font-size: 13px;&quot;&gt;&lt;span style=&quot;white-space: pre;&quot;&gt;PakManager&lt;/span&gt;：&lt;/font&gt;&lt;span style=&quot;white-space: pre;&quot;&gt;MoePakManager&lt;/span&gt;&lt;/font&gt;&lt;/p&gt;&lt;p style=&quot;margin: 0px 0px 0px 4px; font-size: 13px;&quot;&gt;&lt;font style=&quot;font-size: 13px;&quot; face=&quot;JODBLIUlCVhD2kTtNdMu&quot;&gt;&lt;font style=&quot;font-size: 13px;&quot;&gt;+&amp;nbsp;&lt;/font&gt;&lt;span style=&quot;white-space: pre;&quot;&gt;MountedStaticPaks&lt;/span&gt;&lt;/font&gt;&lt;/p&gt;&lt;p style=&quot;margin: 0px 0px 0px 4px; font-size: 13px;&quot;&gt;&lt;font style=&quot;font-size: 13px;&quot; face=&quot;JODBLIUlCVhD2kTtNdMu&quot;&gt;&lt;span style=&quot;white-space: pre;&quot;&gt;+ &lt;/span&gt;&lt;span style=&quot;white-space: pre;&quot;&gt;MountedGroups&lt;/span&gt;&lt;/font&gt;&lt;/p&gt;&lt;hr size=&quot;1&quot; style=&quot;border-style: solid; font-size: 13px;&quot;&gt;&lt;p style=&quot;margin: 0px 0px 0px 4px; font-size: 13px;&quot;&gt;&lt;font style=&quot;font-size: 13px;&quot; face=&quot;JODBLIUlCVhD2kTtNdMu&quot;&gt;+&amp;nbsp;&lt;font style=&quot;font-size: 13px;&quot;&gt;&lt;span style=&quot;white-space: pre;&quot;&gt;CheckMountStaticPaks &lt;/span&gt;：&lt;/font&gt;&lt;span style=&quot;white-space: pre;&quot;&gt;检测并mount默认（静态）mount的包组，该函数是不是会多次执行？&lt;/span&gt;&lt;/font&gt;&lt;/p&gt;&lt;p style=&quot;margin: 0px 0px 0px 4px; font-size: 13px;&quot;&gt;&lt;font style=&quot;font-size: 13px;&quot; face=&quot;JODBLIUlCVhD2kTtNdMu&quot;&gt;+&amp;nbsp;&lt;font style=&quot;font-size: 13px;&quot;&gt;&lt;font style=&quot;font-size: 13px;&quot;&gt;&lt;span style=&quot;white-space: pre;&quot;&gt;MountGroup&lt;/span&gt;&lt;/font&gt;&lt;span style=&quot;white-space: pre;&quot;&gt;(&lt;/span&gt;&lt;span style=&quot;white-space: pre;&quot;&gt;groupId&lt;/span&gt;&lt;span style=&quot;white-space: pre;&quot;&gt;)&lt;/span&gt;：&lt;/font&gt;&lt;span style=&quot;white-space: pre;&quot;&gt;Mount包组中的所有pak&lt;/span&gt;&lt;/font&gt;&lt;/p&gt;&lt;p style=&quot;margin: 0px 0px 0px 4px; font-size: 13px;&quot;&gt;&lt;font style=&quot;font-size: 13px;&quot; face=&quot;JODBLIUlCVhD2kTtNdMu&quot;&gt;&lt;span style=&quot;white-space: pre;&quot;&gt;+ &lt;/span&gt;&lt;span style=&quot;white-space: pre;&quot;&gt;UnMountGroup&lt;/span&gt;&lt;span style=&quot;white-space: pre;&quot;&gt;(&lt;/span&gt;&lt;span style=&quot;white-space: pre;&quot;&gt;groupId&lt;/span&gt;&lt;span style=&quot;white-space: pre;&quot;&gt;) ： &lt;/span&gt;&lt;span style=&quot;white-space: pre;&quot;&gt;UnMount包组中的所有pak&lt;/span&gt;&lt;/font&gt;&lt;/p&gt;&lt;p style=&quot;margin: 0px 0px 0px 4px; font-size: 13px;&quot;&gt;&lt;font style=&quot;font-size: 13px;&quot; face=&quot;JODBLIUlCVhD2kTtNdMu&quot;&gt;&lt;span style=&quot;white-space: pre;&quot;&gt;+ &lt;/span&gt;&lt;span style=&quot;white-space: pre;&quot;&gt;IsMounted&lt;/span&gt;&lt;span style=&quot;white-space: pre;&quot;&gt;(&lt;/span&gt;&lt;span style=&quot;white-space: pre;&quot;&gt;groupId&lt;/span&gt;&lt;span style=&quot;white-space: pre;&quot;&gt;)&lt;/span&gt;&lt;/font&gt;&lt;/p&gt;&lt;p style=&quot;margin: 0px 0px 0px 4px; font-size: 13px;&quot;&gt;&lt;font style=&quot;font-size: 13px;&quot; face=&quot;JODBLIUlCVhD2kTtNdMu&quot;&gt;&lt;span style=&quot;white-space: pre;&quot;&gt;+ &lt;/span&gt;&lt;span style=&quot;white-space: pre;&quot;&gt;UnMountAllGroup&lt;/span&gt;&lt;span style=&quot;white-space: pre;&quot;&gt;(&lt;/span&gt;&lt;span style=&quot;white-space: pre;&quot;&gt;ignoreGroupList&lt;/span&gt;&lt;span style=&quot;white-space: pre;&quot;&gt;) ： &lt;/span&gt;&lt;span style=&quot;white-space: pre;&quot;&gt;ignoreGroupList为&lt;/span&gt;&lt;span style=&quot;white-space: pre;&quot;&gt;不会被unmount的列表&lt;/span&gt;&lt;/font&gt;&lt;/p&gt;&lt;p style=&quot;margin: 0px 0px 0px 4px; font-size: 13px;&quot;&gt;&lt;font style=&quot;font-size: 13px;&quot; face=&quot;JODBLIUlCVhD2kTtNdMu&quot;&gt;&lt;span style=&quot;white-space: pre;&quot;&gt;+ &lt;/span&gt;&lt;span style=&quot;white-space: pre;&quot;&gt;MountGroups&lt;/span&gt;&lt;span style=&quot;white-space: pre;&quot;&gt;(&lt;/span&gt;&lt;span style=&quot;white-space: pre;&quot;&gt;GroupIds&lt;/span&gt;&lt;span style=&quot;white-space: pre;&quot;&gt;)&lt;/span&gt;&lt;/font&gt;&lt;/p&gt;&lt;p style=&quot;margin: 0px 0px 0px 4px; font-size: 13px;&quot;&gt;&lt;font style=&quot;font-size: 13px;&quot; face=&quot;JODBLIUlCVhD2kTtNdMu&quot;&gt;&lt;span style=&quot;white-space: pre;&quot;&gt;+ &lt;/span&gt;&lt;span style=&quot;white-space: pre;&quot;&gt;GetMountedGroups&lt;/span&gt;&lt;/font&gt;&lt;/p&gt;" style="verticalAlign=top;align=left;overflow=fill;html=1;whiteSpace=wrap;fillColor=#fff2cc;strokeColor=#d6b656;" parent="1" vertex="1">
          <mxGeometry x="-4500" y="340" width="470" height="320" as="geometry" />
        </mxCell>
        <mxCell id="Y6v7ilCjQGHOnKSHEXt1-36" value="&lt;div style=&quot;text-align: center; line-height: 19px; white-space: pre; font-size: 13px;&quot;&gt;&lt;font style=&quot;font-size: 13px;&quot; face=&quot;Helvetica&quot;&gt;&lt;b&gt;MoeChunkGroupSceneSchedule&lt;/b&gt;&lt;/font&gt;&lt;/div&gt;&lt;div style=&quot;text-align: center; line-height: 19px; white-space: pre; font-size: 13px;&quot;&gt;&lt;b&gt;执行切换场景是与chunk相关的任务&lt;/b&gt;&lt;/div&gt;&lt;hr size=&quot;1&quot; style=&quot;border-style: solid; font-size: 13px;&quot;&gt;&lt;p style=&quot;margin: 0px 0px 0px 4px; font-size: 13px;&quot;&gt;&lt;font style=&quot;font-size: 13px;&quot; face=&quot;GRlW3fF3YkgWDjY2PeiB&quot;&gt;+&amp;nbsp;&lt;font style=&quot;font-size: 13px;&quot;&gt;&lt;font style=&quot;font-size: 13px;&quot;&gt;&lt;span style=&quot;white-space: pre;&quot;&gt;所有者&lt;/span&gt;：&lt;/font&gt;&lt;span style=&quot;white-space: pre;&quot;&gt;MoeChunkGroupManager&lt;/span&gt;&lt;/font&gt;&lt;/font&gt;&lt;/p&gt;&lt;p style=&quot;margin: 0px 0px 0px 4px;&quot;&gt;&lt;font style=&quot;font-size: 13px;&quot; face=&quot;GRlW3fF3YkgWDjY2PeiB&quot;&gt;&lt;font style=&quot;font-size: 13px;&quot;&gt;&lt;span style=&quot;white-space: pre;&quot;&gt;+ &lt;/span&gt;&lt;/font&gt;&lt;/font&gt;&lt;span style=&quot;background-color: initial; font-size: 13px; white-space: pre;&quot;&gt;&lt;font face=&quot;GRlW3fF3YkgWDjY2PeiB&quot;&gt;sceneDownloadType  //&lt;/font&gt;&lt;/span&gt;&lt;/p&gt;&lt;hr size=&quot;1&quot; style=&quot;border-style: solid; font-size: 13px;&quot;&gt;&lt;p style=&quot;margin: 0px 0px 0px 4px; font-size: 13px;&quot;&gt;&lt;font style=&quot;font-size: 13px;&quot; face=&quot;GRlW3fF3YkgWDjY2PeiB&quot;&gt;+&amp;nbsp;&lt;font style=&quot;font-size: 13px;&quot;&gt;&lt;span style=&quot;white-space: pre;&quot;&gt;OnSwitchScene&lt;/span&gt;&lt;span style=&quot;white-space: pre;&quot;&gt;（&lt;/span&gt;&lt;span style=&quot;white-space: pre;&quot;&gt;sceneName&lt;/span&gt;&lt;span style=&quot;white-space: pre;&quot;&gt;）：&lt;/span&gt;类型&lt;/font&gt;&lt;/font&gt;&lt;/p&gt;&lt;p style=&quot;margin: 0px 0px 0px 4px; font-size: 13px;&quot;&gt;&lt;font style=&quot;font-size: 13px;&quot; face=&quot;GRlW3fF3YkgWDjY2PeiB&quot;&gt;+&amp;nbsp;&lt;font style=&quot;font-size: 13px;&quot;&gt;&lt;span style=&quot;white-space: pre;&quot;&gt;InDownloadScene&lt;/span&gt;&lt;span style=&quot;white-space: pre;&quot;&gt;（&lt;/span&gt;&lt;span style=&quot;white-space: pre;&quot;&gt;downloadScene&lt;/span&gt;&lt;span style=&quot;white-space: pre;&quot;&gt;）：&lt;/span&gt;类型&lt;/font&gt;&lt;/font&gt;&lt;/p&gt;&lt;p style=&quot;margin: 0px 0px 0px 4px; font-size: 13px;&quot;&gt;&lt;font style=&quot;font-size: 13px;&quot; face=&quot;GRlW3fF3YkgWDjY2PeiB&quot;&gt;&lt;font style=&quot;font-size: 13px;&quot;&gt;+&amp;nbsp;&lt;/font&gt;&lt;font style=&quot;font-size: 13px;&quot;&gt;&lt;span style=&quot;white-space: pre;&quot;&gt;GetDownloadSceneType&lt;/span&gt;&lt;span style=&quot;white-space: pre;&quot;&gt;（&lt;/span&gt;&lt;span style=&quot;white-space: pre;&quot;&gt;sceneName&lt;/span&gt;&lt;span style=&quot;white-space: pre;&quot;&gt;）：当前要眺转到哪个场景，&lt;/span&gt;&lt;/font&gt;&lt;/font&gt;&lt;/p&gt;&lt;p style=&quot;margin: 0px 0px 0px 4px; font-size: 13px;&quot;&gt;&lt;span style=&quot;white-space: pre;&quot;&gt;&lt;font style=&quot;font-size: 13px;&quot; face=&quot;GRlW3fF3YkgWDjY2PeiB&quot;&gt;据此判断需要mount的包&lt;/font&gt;&lt;/span&gt;&lt;/p&gt;" style="verticalAlign=top;align=left;overflow=fill;html=1;whiteSpace=wrap;fillColor=#fff2cc;strokeColor=#d6b656;" parent="1" vertex="1">
          <mxGeometry x="-4580" y="760" width="470" height="170" as="geometry" />
        </mxCell>
        <mxCell id="Y6v7ilCjQGHOnKSHEXt1-37" value="&lt;div style=&quot;text-align: center; line-height: 19px; white-space: pre; font-size: 13px;&quot;&gt;&lt;font style=&quot;font-size: 13px;&quot; face=&quot;Helvetica&quot;&gt;&lt;b&gt;MoeChunkGroupShaderSchedule&lt;/b&gt;&lt;/font&gt;&lt;/div&gt;&lt;div style=&quot;text-align: center; line-height: 19px; white-space: pre; font-size: 13px;&quot;&gt;&lt;font style=&quot;font-size: 13px;&quot; face=&quot;RELAgWFsJvdtGb-JRllp&quot;&gt;&lt;b&gt;负责执行chunk发生改变时，需要对shader做的操作&lt;/b&gt;&lt;/font&gt;&lt;/div&gt;&lt;hr size=&quot;1&quot; style=&quot;border-style: solid; font-size: 13px;&quot;&gt;&lt;p style=&quot;margin: 0px 0px 0px 4px; font-size: 13px;&quot;&gt;&lt;font style=&quot;font-size: 13px;&quot; face=&quot;RELAgWFsJvdtGb-JRllp&quot;&gt;+&amp;nbsp;&lt;font style=&quot;font-size: 13px;&quot;&gt;&lt;font style=&quot;font-size: 13px;&quot;&gt;&lt;span style=&quot;white-space: pre;&quot;&gt;owner&lt;/span&gt;：&lt;/font&gt;&lt;span style=&quot;white-space: pre;&quot;&gt;MoeChunkGroupManager&lt;/span&gt;&lt;/font&gt;&lt;/font&gt;&lt;/p&gt;&lt;hr size=&quot;1&quot; style=&quot;border-style: solid; font-size: 13px;&quot;&gt;&lt;p style=&quot;margin: 0px 0px 0px 4px; font-size: 13px;&quot;&gt;&lt;font style=&quot;font-size: 13px;&quot; face=&quot;RELAgWFsJvdtGb-JRllp&quot;&gt;+&amp;nbsp;&lt;font style=&quot;font-size: 13px;&quot;&gt;&lt;font style=&quot;font-size: 13px;&quot;&gt;&lt;span style=&quot;white-space: pre;&quot;&gt;ReloadShaderCode&lt;/span&gt;（）：每次mount包组后都需要重新&lt;/font&gt;&lt;span style=&quot;white-space: pre;&quot;&gt;加载ShaderLib&lt;/span&gt;&lt;/font&gt;&lt;/font&gt;&lt;/p&gt;&lt;p style=&quot;margin: 0px 0px 0px 4px; font-size: 13px;&quot;&gt;&lt;font style=&quot;font-size: 13px;&quot;&gt;&lt;font style=&quot;font-size: 13px;&quot;&gt;&lt;span style=&quot;white-space: pre;&quot;&gt;&lt;font face=&quot;RELAgWFsJvdtGb-JRllp&quot;&gt;+&lt;/font&gt;&lt;font style=&quot;font-size: 13px;&quot; face=&quot;Helvetica&quot;&gt; &lt;/font&gt;&lt;/span&gt;&lt;/font&gt;&lt;/font&gt;&lt;font style=&quot;font-size: 13px;&quot; face=&quot;LgHsMGE7hj-lfj-5sVJT&quot;&gt;&lt;span style=&quot;white-space: pre;&quot;&gt;OnHandleReloadShader（）：需要重新加载shader，目前只有&lt;/span&gt;&lt;span style=&quot;white-space: pre;&quot;&gt;ReloadShaderCode&lt;/span&gt;&lt;/font&gt;&lt;/p&gt;" style="verticalAlign=top;align=left;overflow=fill;html=1;whiteSpace=wrap;fillColor=#fff2cc;strokeColor=#d6b656;" parent="1" vertex="1">
          <mxGeometry x="-4585" y="990" width="480" height="140" as="geometry" />
        </mxCell>
        <mxCell id="Y6v7ilCjQGHOnKSHEXt1-38" value="&lt;div style=&quot;text-align: center; line-height: 19px; white-space: pre; font-size: 13px;&quot;&gt;&lt;span style=&quot;&quot;&gt;&lt;font style=&quot;font-size: 13px;&quot; face=&quot;Helvetica&quot;&gt;&lt;b&gt;MoeChunkGroupUISchedule&lt;/b&gt;&lt;/font&gt;&lt;/span&gt;&lt;/div&gt;&lt;div style=&quot;text-align: center; line-height: 19px; white-space: pre; font-size: 13px;&quot;&gt;&lt;span style=&quot;&quot;&gt;&lt;font style=&quot;font-size: 13px;&quot; face=&quot;Helvetica&quot;&gt;&lt;b&gt;执行UI界面的下载任务，UI为什么要单独列一个schedule？&lt;/b&gt;&lt;/font&gt;&lt;/span&gt;&lt;/div&gt;&lt;hr size=&quot;1&quot; style=&quot;border-style: solid; font-size: 13px;&quot;&gt;&lt;p style=&quot;margin: 0px 0px 0px 4px; font-size: 13px;&quot;&gt;&lt;font style=&quot;font-size: 13px;&quot; face=&quot;NkO-gVkfYl5i9tvxlsgR&quot;&gt;+&amp;nbsp;&lt;font style=&quot;font-size: 13px;&quot;&gt;&lt;font style=&quot;font-size: 13px;&quot;&gt;&lt;span style=&quot;white-space: pre;&quot;&gt;owner&lt;/span&gt;：&lt;/font&gt;&lt;span style=&quot;white-space: pre;&quot;&gt;MoeChunkGroupManager&lt;/span&gt;&lt;/font&gt;&lt;/font&gt;&lt;/p&gt;&lt;p style=&quot;margin: 0px 0px 0px 4px; font-size: 13px;&quot;&gt;&lt;font style=&quot;font-size: 13px;&quot; face=&quot;NkO-gVkfYl5i9tvxlsgR&quot;&gt;+ field2：类型&lt;/font&gt;&lt;/p&gt;&lt;hr size=&quot;1&quot; style=&quot;border-style: solid; font-size: 13px;&quot;&gt;&lt;p style=&quot;margin: 0px 0px 0px 4px; font-size: 13px;&quot;&gt;&lt;font style=&quot;font-size: 13px;&quot; face=&quot;NkO-gVkfYl5i9tvxlsgR&quot;&gt;+&amp;nbsp;&lt;font style=&quot;font-size: 13px;&quot;&gt;&lt;font style=&quot;font-size: 13px;&quot;&gt;&lt;span style=&quot;white-space: pre;&quot;&gt;GetShowInMgrGroups &lt;/span&gt;：&lt;/font&gt;&lt;span style=&quot;white-space: pre;&quot;&gt;获取所有在下载管理界面显示的下载包组&lt;/span&gt;&lt;/font&gt;&lt;/font&gt;&lt;/p&gt;&lt;p style=&quot;margin: 0px 0px 0px 4px; font-size: 13px;&quot;&gt;&lt;font style=&quot;font-size: 13px;&quot; face=&quot;NkO-gVkfYl5i9tvxlsgR&quot;&gt;+&amp;nbsp;&lt;font style=&quot;font-size: 13px;&quot;&gt;&lt;font style=&quot;font-size: 13px;&quot;&gt;&lt;span style=&quot;white-space: pre;&quot;&gt;ShowInMgrGroupsDownloading &lt;/span&gt;：&lt;/font&gt;&lt;span style=&quot;white-space: pre;&quot;&gt;下载管理界面是否有下载中的包组&lt;/span&gt;&lt;/font&gt;&lt;/font&gt;&lt;/p&gt;&lt;p style=&quot;margin: 0px 0px 0px 4px; font-size: 13px;&quot;&gt;&lt;font style=&quot;font-size: 13px;&quot; face=&quot;NkO-gVkfYl5i9tvxlsgR&quot;&gt;&lt;span style=&quot;white-space: pre;&quot;&gt;+ &lt;/span&gt;&lt;font style=&quot;font-size: 13px;&quot;&gt;&lt;span style=&quot;white-space: pre;&quot;&gt;ShowInMgrGroupsNeedDownload ： &lt;/span&gt;&lt;span style=&quot;white-space: pre;&quot;&gt;下载管理界面是否有未下载完成的包组&lt;/span&gt;&lt;/font&gt;&lt;/font&gt;&lt;/p&gt;&lt;p style=&quot;margin: 0px 0px 0px 4px; font-size: 13px;&quot;&gt;&lt;font style=&quot;font-size: 13px;&quot; face=&quot;NkO-gVkfYl5i9tvxlsgR&quot;&gt;&lt;span style=&quot;white-space: pre;&quot;&gt;+ &lt;/span&gt;&lt;font style=&quot;font-size: 13px;&quot;&gt;&lt;span style=&quot;white-space: pre;&quot;&gt;CheckShowInMgrGroupsDownloadState ： &lt;/span&gt;&lt;span style=&quot;white-space: pre;&quot;&gt;任务下载完成时，重新检测一下对应的下载管理任务&lt;/span&gt;&lt;/font&gt;&lt;/font&gt;&lt;/p&gt;&lt;p style=&quot;margin: 0px 0px 0px 4px; font-size: 13px;&quot;&gt;&lt;font style=&quot;font-size: 13px;&quot; face=&quot;NkO-gVkfYl5i9tvxlsgR&quot;&gt;&lt;font style=&quot;font-size: 13px;&quot;&gt;&lt;span style=&quot;white-space: pre;&quot;&gt;+ &lt;/span&gt;&lt;/font&gt;&lt;font style=&quot;font-size: 13px;&quot;&gt;&lt;span style=&quot;white-space: pre;&quot;&gt;GetGroupTabid ： &lt;/span&gt;&lt;span style=&quot;white-space: pre;&quot;&gt;获取资源包的tab id&lt;/span&gt;&lt;/font&gt;&lt;/font&gt;&lt;/p&gt;&lt;p style=&quot;margin: 0px 0px 0px 4px; font-size: 13px;&quot;&gt;&lt;font style=&quot;font-size: 13px;&quot; face=&quot;NkO-gVkfYl5i9tvxlsgR&quot;&gt;&lt;font style=&quot;font-size: 13px;&quot;&gt;&lt;span style=&quot;white-space: pre;&quot;&gt;+ &lt;/span&gt;&lt;/font&gt;&lt;font style=&quot;font-size: 13px;&quot;&gt;&lt;font style=&quot;font-size: 13px;&quot;&gt;&lt;span style=&quot;white-space: pre;&quot;&gt;GetGroupDownloadState&lt;/span&gt;&lt;span style=&quot;white-space: pre;&quot;&gt;(&lt;/span&gt;&lt;span style=&quot;white-space: pre;&quot;&gt;groupId&lt;/span&gt;&lt;/font&gt;&lt;font style=&quot;font-size: 13px;&quot;&gt;&lt;span style=&quot;white-space: pre;&quot;&gt;) ： &lt;/span&gt;&lt;span style=&quot;white-space: pre;&quot;&gt;获取资源包的下载状态&lt;/span&gt;&lt;/font&gt;&lt;/font&gt;&lt;/font&gt;&lt;/p&gt;&lt;p style=&quot;margin: 0px 0px 0px 4px; font-size: 13px;&quot;&gt;&lt;font style=&quot;font-size: 13px;&quot; face=&quot;NkO-gVkfYl5i9tvxlsgR&quot;&gt;&lt;font style=&quot;font-size: 13px;&quot;&gt;&lt;span style=&quot;white-space: pre;&quot;&gt;+ &lt;/span&gt;&lt;/font&gt;&lt;font style=&quot;font-size: 13px;&quot;&gt;&lt;font style=&quot;font-size: 13px;&quot;&gt;&lt;span style=&quot;white-space: pre;&quot;&gt;GotoAndDownloadGroup&lt;/span&gt;&lt;span style=&quot;white-space: pre;&quot;&gt;(&lt;/span&gt;&lt;span style=&quot;white-space: pre;&quot;&gt;groupIds&lt;/span&gt;&lt;/font&gt;&lt;font style=&quot;font-size: 13px;&quot;&gt;&lt;span style=&quot;white-space: pre;&quot;&gt;) ： &lt;/span&gt;&lt;span style=&quot;white-space: pre;&quot;&gt;开始下载并跳转到指定group&lt;/span&gt;&lt;/font&gt;&lt;/font&gt;&lt;/font&gt;&lt;/p&gt;&lt;p style=&quot;margin: 0px 0px 0px 4px; font-size: 13px;&quot;&gt;&lt;font style=&quot;font-size: 13px;&quot; face=&quot;NkO-gVkfYl5i9tvxlsgR&quot;&gt;&lt;font style=&quot;font-size: 13px;&quot;&gt;&lt;span style=&quot;white-space: pre;&quot;&gt;+ &lt;/span&gt;&lt;/font&gt;&lt;font style=&quot;font-size: 13px;&quot;&gt;&lt;font style=&quot;font-size: 13px;&quot;&gt;&lt;span style=&quot;white-space: pre;&quot;&gt;CheckMainUIResource&lt;/span&gt;&lt;span style=&quot;white-space: pre;&quot;&gt;(&lt;/span&gt;&lt;span style=&quot;white-space: pre;&quot;&gt;UIName&lt;/span&gt;&lt;/font&gt;&lt;font style=&quot;font-size: 13px;&quot;&gt;&lt;span style=&quot;white-space: pre;&quot;&gt;) ： &lt;/span&gt;&lt;span style=&quot;white-space: pre;&quot;&gt;主界面UI 分包检测&lt;/span&gt;&lt;/font&gt;&lt;/font&gt;&lt;/font&gt;&lt;/p&gt;&lt;p style=&quot;margin: 0px 0px 0px 4px; font-size: 13px;&quot;&gt;&lt;font style=&quot;font-size: 13px;&quot; face=&quot;NkO-gVkfYl5i9tvxlsgR&quot;&gt;&lt;font style=&quot;font-size: 13px;&quot;&gt;&lt;span style=&quot;white-space: pre;&quot;&gt;+ &lt;/span&gt;&lt;/font&gt;&lt;font style=&quot;font-size: 13px;&quot;&gt;&lt;span style=&quot;white-space: pre;&quot;&gt;GetALLMainUIGroup ： &lt;/span&gt;&lt;span style=&quot;white-space: pre;&quot;&gt;获取主界面UI包组&lt;/span&gt;&lt;/font&gt;&lt;/font&gt;&lt;/p&gt;&lt;p style=&quot;margin: 0px 0px 0px 4px; font-size: 13px;&quot;&gt;&lt;font style=&quot;font-size: 13px;&quot; face=&quot;NkO-gVkfYl5i9tvxlsgR&quot;&gt;&lt;font style=&quot;font-size: 13px;&quot;&gt;&lt;span style=&quot;white-space: pre;&quot;&gt;+ &lt;/span&gt;&lt;/font&gt;&lt;font style=&quot;font-size: 13px;&quot;&gt;&lt;font style=&quot;font-size: 13px;&quot;&gt;&lt;span style=&quot;white-space: pre;&quot;&gt;CheckMainUINeedDownload&lt;/span&gt;&lt;span style=&quot;white-space: pre;&quot;&gt;(&lt;/span&gt;&lt;span style=&quot;white-space: pre;&quot;&gt;UIName&lt;/span&gt;&lt;/font&gt;&lt;font style=&quot;font-size: 13px;&quot;&gt;&lt;span style=&quot;white-space: pre;&quot;&gt;) ： &lt;/span&gt;&lt;span style=&quot;white-space: pre;&quot;&gt;对应UI是否要下载分包资源&lt;/span&gt;&lt;/font&gt;&lt;/font&gt;&lt;/font&gt;&lt;/p&gt;&lt;p style=&quot;margin: 0px 0px 0px 4px; font-size: 13px;&quot;&gt;&lt;font style=&quot;font-size: 13px;&quot; face=&quot;NkO-gVkfYl5i9tvxlsgR&quot;&gt;&lt;font style=&quot;font-size: 13px;&quot;&gt;&lt;span style=&quot;white-space: pre;&quot;&gt;+ &lt;/span&gt;&lt;/font&gt;&lt;font style=&quot;font-size: 13px;&quot;&gt;&lt;font style=&quot;font-size: 13px;&quot;&gt;&lt;span style=&quot;white-space: pre;&quot;&gt;GetMainUINeedDownLoadGroup&lt;/span&gt;&lt;span style=&quot;white-space: pre;&quot;&gt;(&lt;/span&gt;&lt;span style=&quot;white-space: pre;&quot;&gt;UIName&lt;/span&gt;&lt;/font&gt;&lt;font style=&quot;font-size: 13px;&quot;&gt;&lt;span style=&quot;white-space: pre;&quot;&gt;) ： &lt;/span&gt;&lt;span style=&quot;white-space: pre;&quot;&gt;获取UI要下载的分包ID&lt;/span&gt;&lt;/font&gt;&lt;/font&gt;&lt;/font&gt;&lt;/p&gt;&lt;p style=&quot;margin: 0px 0px 0px 4px; font-size: 13px;&quot;&gt;&lt;font style=&quot;font-size: 13px;&quot; face=&quot;NkO-gVkfYl5i9tvxlsgR&quot;&gt;&lt;font style=&quot;font-size: 13px;&quot;&gt;&lt;span style=&quot;white-space: pre;&quot;&gt;+ &lt;/span&gt;&lt;/font&gt;&lt;span style=&quot;white-space: pre;&quot;&gt;OnLoginDoneHandler&lt;/span&gt;&lt;/font&gt;&lt;/p&gt;&lt;p style=&quot;margin: 0px 0px 0px 4px; font-size: 13px;&quot;&gt;&lt;font style=&quot;font-size: 13px;&quot; face=&quot;NkO-gVkfYl5i9tvxlsgR&quot;&gt;&lt;span style=&quot;white-space: pre;&quot;&gt;+ &lt;/span&gt;&lt;span style=&quot;white-space: pre;&quot;&gt;CheckShowInMgrGroupsDownloadFinish&lt;/span&gt;&lt;/font&gt;&lt;/p&gt;&lt;p style=&quot;margin: 0px 0px 0px 4px; font-size: 13px;&quot;&gt;&lt;font style=&quot;font-size: 13px;&quot; face=&quot;NkO-gVkfYl5i9tvxlsgR&quot;&gt;&lt;span style=&quot;white-space: pre;&quot;&gt;+ &lt;/span&gt;&lt;font style=&quot;font-size: 13px;&quot;&gt;&lt;font style=&quot;font-size: 13px;&quot;&gt;&lt;span style=&quot;white-space: pre;&quot;&gt;ReportShowInMgrGroupsDownloadFinish&lt;/span&gt;&lt;span style=&quot;white-space: pre;&quot;&gt;(&lt;/span&gt;&lt;span style=&quot;white-space: pre;&quot;&gt;taskId&lt;/span&gt;&lt;/font&gt;&lt;font style=&quot;font-size: 13px;&quot;&gt;&lt;span style=&quot;white-space: pre;&quot;&gt;) ： &lt;/span&gt;&lt;span style=&quot;white-space: pre;&quot;&gt;客户端上报下载任务已完成&lt;/span&gt;&lt;/font&gt;&lt;/font&gt;&lt;/font&gt;&lt;/p&gt;&lt;p style=&quot;margin: 0px 0px 0px 4px; font-size: 13px;&quot;&gt;&lt;font style=&quot;font-size: 13px;&quot; face=&quot;NkO-gVkfYl5i9tvxlsgR&quot;&gt;&lt;font style=&quot;font-size: 13px;&quot;&gt;&lt;span style=&quot;white-space: pre;&quot;&gt;+ &lt;/span&gt;&lt;/font&gt;&lt;font style=&quot;font-size: 13px;&quot;&gt;&lt;span style=&quot;white-space: pre;&quot;&gt;OnUpdate&lt;/span&gt;&lt;span style=&quot;white-space: pre;&quot;&gt;(&lt;/span&gt;&lt;span style=&quot;white-space: pre;&quot;&gt;deltaTime&lt;/span&gt;&lt;/font&gt;&lt;span style=&quot;white-space: pre;&quot;&gt;)&lt;/span&gt;&lt;/font&gt;&lt;/p&gt;&lt;p style=&quot;margin: 0px 0px 0px 4px; font-size: 13px;&quot;&gt;&lt;br&gt;&lt;/p&gt;" style="verticalAlign=top;align=left;overflow=fill;html=1;whiteSpace=wrap;fillColor=#fff2cc;strokeColor=#d6b656;" parent="1" vertex="1">
          <mxGeometry x="-4680" y="1290" width="640" height="370" as="geometry" />
        </mxCell>
        <mxCell id="Y6v7ilCjQGHOnKSHEXt1-39" value="" style="endArrow=classic;html=1;rounded=0;exitX=0.463;exitY=0.993;exitDx=0;exitDy=0;exitPerimeter=0;entryX=-0.004;entryY=0.398;entryDx=0;entryDy=0;entryPerimeter=0;" parent="1" source="Y6v7ilCjQGHOnKSHEXt1-35" target="Y6v7ilCjQGHOnKSHEXt1-10" edge="1">
          <mxGeometry width="50" height="50" relative="1" as="geometry">
            <mxPoint x="-3760" y="1270" as="sourcePoint" />
            <mxPoint x="-3710" y="1220" as="targetPoint" />
          </mxGeometry>
        </mxCell>
        <mxCell id="Y6v7ilCjQGHOnKSHEXt1-40" value="" style="endArrow=classic;html=1;rounded=0;exitX=1;exitY=0.5;exitDx=0;exitDy=0;" parent="1" source="Y6v7ilCjQGHOnKSHEXt1-36" target="Y6v7ilCjQGHOnKSHEXt1-10" edge="1">
          <mxGeometry width="50" height="50" relative="1" as="geometry">
            <mxPoint x="-3760" y="1270" as="sourcePoint" />
            <mxPoint x="-3410" y="1010" as="targetPoint" />
          </mxGeometry>
        </mxCell>
        <mxCell id="Y6v7ilCjQGHOnKSHEXt1-41" value="" style="endArrow=classic;html=1;rounded=0;exitX=1;exitY=0.5;exitDx=0;exitDy=0;entryX=-0.007;entryY=0.404;entryDx=0;entryDy=0;entryPerimeter=0;" parent="1" source="Y6v7ilCjQGHOnKSHEXt1-37" target="Y6v7ilCjQGHOnKSHEXt1-10" edge="1">
          <mxGeometry width="50" height="50" relative="1" as="geometry">
            <mxPoint x="-3760" y="1270" as="sourcePoint" />
            <mxPoint x="-3710" y="1220" as="targetPoint" />
          </mxGeometry>
        </mxCell>
        <mxCell id="Y6v7ilCjQGHOnKSHEXt1-42" value="" style="endArrow=classic;html=1;rounded=0;exitX=1;exitY=0;exitDx=0;exitDy=0;entryX=-0.008;entryY=0.414;entryDx=0;entryDy=0;entryPerimeter=0;" parent="1" source="Y6v7ilCjQGHOnKSHEXt1-38" target="Y6v7ilCjQGHOnKSHEXt1-10" edge="1">
          <mxGeometry width="50" height="50" relative="1" as="geometry">
            <mxPoint x="-3760" y="1270" as="sourcePoint" />
            <mxPoint x="-3710" y="1220" as="targetPoint" />
          </mxGeometry>
        </mxCell>
        <mxCell id="Y6v7ilCjQGHOnKSHEXt1-43" value="" style="endArrow=classic;html=1;rounded=0;exitX=0.5;exitY=0;exitDx=0;exitDy=0;entryX=0.02;entryY=0.396;entryDx=0;entryDy=0;entryPerimeter=0;" parent="1" source="Y6v7ilCjQGHOnKSHEXt1-26" target="Y6v7ilCjQGHOnKSHEXt1-10" edge="1">
          <mxGeometry width="50" height="50" relative="1" as="geometry">
            <mxPoint x="-3760" y="1270" as="sourcePoint" />
            <mxPoint x="-3400" y="1010" as="targetPoint" />
          </mxGeometry>
        </mxCell>
        <mxCell id="Y6v7ilCjQGHOnKSHEXt1-44" value="" style="endArrow=classic;html=1;rounded=0;exitX=0.5;exitY=0;exitDx=0;exitDy=0;entryX=0.01;entryY=0.406;entryDx=0;entryDy=0;entryPerimeter=0;" parent="1" source="Y6v7ilCjQGHOnKSHEXt1-27" target="Y6v7ilCjQGHOnKSHEXt1-10" edge="1">
          <mxGeometry width="50" height="50" relative="1" as="geometry">
            <mxPoint x="-3760" y="1270" as="sourcePoint" />
            <mxPoint x="-3710" y="1220" as="targetPoint" />
          </mxGeometry>
        </mxCell>
        <mxCell id="Y6v7ilCjQGHOnKSHEXt1-45" value="&lt;font style=&quot;font-size: 17px;&quot; face=&quot;Helvetica&quot;&gt;&lt;b&gt;各个shedule作为MoeChunkManager的各功能模块具体执行的部分&lt;/b&gt;&lt;/font&gt;&lt;div style=&quot;font-size: 17px;&quot;&gt;&lt;font style=&quot;font-size: 17px;&quot; face=&quot;GLNBJ8kfbzAfBnB0zOgq&quot;&gt;&lt;b&gt;为MoeChunkManager作为各shedule对外的装饰器&lt;/b&gt;&lt;/font&gt;&lt;/div&gt;" style="text;html=1;align=center;verticalAlign=middle;resizable=0;points=[];autosize=1;strokeColor=none;fillColor=none;" parent="1" vertex="1">
          <mxGeometry x="-3990" y="730" width="530" height="60" as="geometry" />
        </mxCell>
        <mxCell id="Y6v7ilCjQGHOnKSHEXt1-46" value="&lt;p style=&quot;margin:0px;margin-top:4px;text-align:center;&quot;&gt;&lt;i&gt;&amp;lt;&amp;lt;Interface&amp;gt;&amp;gt;&lt;/i&gt;&lt;br/&gt;&lt;b&gt;Interface&lt;/b&gt;&lt;/p&gt;&lt;hr size=&quot;1&quot; style=&quot;border-style:solid;&quot;/&gt;&lt;p style=&quot;margin:0px;margin-left:4px;&quot;&gt;+ field1: Type&lt;br/&gt;+ field2: Type&lt;/p&gt;&lt;hr size=&quot;1&quot; style=&quot;border-style:solid;&quot;/&gt;&lt;p style=&quot;margin:0px;margin-left:4px;&quot;&gt;+ method1(Type): Type&lt;br/&gt;+ method2(Type, Type): Type&lt;/p&gt;" style="verticalAlign=top;align=left;overflow=fill;html=1;whiteSpace=wrap;" parent="1" vertex="1">
          <mxGeometry x="40" y="2280" width="190" height="140" as="geometry" />
        </mxCell>
        <mxCell id="1DrKPs8UEPkE6xyQzQAl-1" value="&lt;p style=&quot;margin:0px;margin-top:4px;text-align:center;&quot;&gt;&lt;i&gt;ChunkDownloadWhiteListTable&lt;/i&gt;&lt;/p&gt;&lt;p style=&quot;margin:0px;margin-top:4px;text-align:center;&quot;&gt;&lt;i&gt;与下载相关的表&lt;/i&gt;&lt;/p&gt;&lt;hr size=&quot;1&quot; style=&quot;border-style:solid;&quot;&gt;&lt;p style=&quot;margin:0px;margin-left:4px;&quot;&gt;+ field1：类型&lt;br&gt;+ field2：类型&lt;/p&gt;&lt;hr size=&quot;1&quot; style=&quot;border-style:solid;&quot;&gt;&lt;p style=&quot;margin:0px;margin-left:4px;&quot;&gt;&lt;font&gt;+ GetChunkDownloadWhiteListDataById(id)：获取ChunkDownloadWhiteListData完整表格(包含所有分表）&lt;/font&gt;&lt;br&gt;+ method2（Type， Type）：类型&lt;/p&gt;" style="verticalAlign=top;align=left;overflow=fill;html=1;whiteSpace=wrap;" parent="1" vertex="1">
          <mxGeometry x="-4920" y="770" width="290" height="250" as="geometry" />
        </mxCell>
        <mxCell id="uQmSAstijpKEz72sWdWA-1" value="下载下载列表中所有资源的按钮&lt;div&gt;下载F-分包中所有的资源&lt;/div&gt;" style="text;html=1;align=center;verticalAlign=middle;resizable=0;points=[];autosize=1;strokeColor=none;fillColor=none;" vertex="1" parent="1">
          <mxGeometry x="-4390" y="1849" width="190" height="40" as="geometry" />
        </mxCell>
        <mxCell id="uQmSAstijpKEz72sWdWA-2" value="&lt;div style=&quot;background-color:#262626;color:#d0d0d0&quot;&gt;&lt;pre style=&quot;font-family:&#39;JetBrains Mono&#39;,monospace;font-size:14.3pt;&quot;&gt;UI_EditorApp_Down:OnClickedBtnMax&lt;span style=&quot;color:#bdbdbd;&quot;&gt;()&lt;/span&gt;&lt;/pre&gt;&lt;pre style=&quot;font-family:&#39;JetBrains Mono&#39;,monospace;font-size:14.3pt;&quot;&gt;&lt;span style=&quot;color:#bdbdbd;&quot;&gt;或&lt;/span&gt;function &lt;span style=&quot;font-size: 14.3pt; white-space-collapse: collapse; color: rgb(189, 189, 189);&quot;&gt;UI_Resource_Down_SubView&lt;/span&gt;&lt;span style=&quot;font-size: 14.3pt; white-space-collapse: collapse;&quot;&gt;:&lt;/span&gt;&lt;span style=&quot;font-size: 14.3pt; white-space-collapse: collapse; color: rgb(57, 204, 155);&quot;&gt;OnClickedBtnMax&lt;/span&gt;&lt;span style=&quot;font-size: 14.3pt; white-space-collapse: collapse; color: rgb(189, 189, 189);&quot;&gt;()&lt;/span&gt;&lt;/pre&gt;&lt;/div&gt;" style="text;html=1;align=center;verticalAlign=middle;resizable=0;points=[];autosize=1;strokeColor=none;fillColor=none;" vertex="1" parent="1">
          <mxGeometry x="-4530" y="1880" width="530" height="120" as="geometry" />
        </mxCell>
      </root>
    </mxGraphModel>
  </diagram>
  <diagram id="cc5ZF6h4ICKkNvJx_7M4" name="第 2 页">
    <mxGraphModel dx="6474" dy="3274" grid="1" gridSize="10" guides="1" tooltips="1" connect="1" arrows="1" fold="1" page="1" pageScale="1" pageWidth="827" pageHeight="1169" math="0" shadow="0">
      <root>
        <mxCell id="0" />
        <mxCell id="1" parent="0" />
      </root>
    </mxGraphModel>
  </diagram>
</mxfile>
